<svg xmlns="http://www.w3.org/2000/svg" viewBox="0 0 1920 1080"><path d="M218.2 312.8C336 320 448.5 355 555.8 399.3c3.4 1.3 6.6 2.8 10 4.1C771 489.3 977 593.6 1203.4 652.6c238.6 62.2 484.1 49 716.8-17.8V1.5H0v339.8c70.8-23.4 144.7-32.9 218.2-28.5z" fill="#6d8fff"/><path d="M1919.9 2.4H-.1V166c74.8-25.1 153.2-33 230.6-23 112.3 14.5 216.6 57.2 316 107.5 3.1 1.6 6.1 3.1 9.2 4.7 190.1 97.3 383.6 205.1 600.4 267.8 252.6 73.2 517 58.8 763.9-19.9V2.4h-.1z" fill="#81a1ff"/><path d="M545.8 107.1c175 108.8 356 219.6 563 286.4 250.3 80.9 517.6 73 765.5-6.4 15.4-4.9 30.5-10.1 45.7-15.5V3.5H345.7c67.2 25.6 130.4 60.7 191.6 98.4 2.9 1.7 5.6 3.5 8.5 5.2z" fill="#92b4ff"/><path d="M1919.9 0H597.5c141.7 103 292.2 197.4 464.2 259.4 230.2 83 480 89.6 714 25.3 49-13.4 97.3-30.2 144.4-50V0h-.2z" fill="#a1c7ff"/></svg>