<svg xmlns="http://www.w3.org/2000/svg" viewBox="0 0 32 32"><path d="M24.964 30.003a1.2 1.2 0 01-.673-.205l-7.627-5.174-4.09 2.943a1.201 1.201 0 01-1.863-.669l-2.053-7.781-7.339-2.808a1.2 1.2 0 01-.015-2.235L29.207 2.969a1.203 1.203 0 011.662 1.254l-.016.093-4.709 24.712a1.201 1.201 0 01-1.18.975zm-7.631-7.827l6.795 4.609 3.663-19.23-13.236 12.736 2.746 1.864.032.021zm-5.655-1.024l.911 3.446 1.959-1.41-2.567-1.741a1.213 1.213 0 01-.303-.295zm-6.626-5.987l5.038 1.928a1.2 1.2 0 01.732.815l.639 2.422c.03-.282.159-.544.362-.741L24.435 7.453 5.052 15.165z"/></svg>