<?xml version="1.0" encoding="utf-8"?>
<!-- Generator: Adobe Illustrator 24.0.2, SVG Export Plug-In . SVG Version: 6.00 Build 0)  -->
<svg version="1.1" id="Слой_1" xmlns="http://www.w3.org/2000/svg" xmlns:xlink="http://www.w3.org/1999/xlink" x="0px" y="0px"
	 viewBox="0 0 472 750" style="enable-background:new 0 0 472 750;" xml:space="preserve">
<style type="text/css">
	.st0{fill:#FFFFFF;}
	.st1{fill:#61DAFB;}
	.st2{fill:none;stroke:#61DAFB;stroke-width:5;}
	.st3{fill:#F7DF1E;}
	.st4{fill:#E44F26;}
	.st5{fill:#F1662A;}
	.st6{fill:#EBEBEB;}
	.st7{fill:#DD4C35;}
	.st8{fill:#1572B6;}
	.st9{fill:#33A9DC;}
	.st10{fill:#DA4648;}
	.st11{fill:none;}
	.st12{fill:none;stroke:#CB3837;stroke-width:22;}
	.st13{fill:#CD6799;}
	.st14{fill:#0E0F0D;}
	.st15{fill:#E1C5A2;}
	.st16{fill:#A89983;}
	.st17{fill:#E0D896;}
	.st18{fill:#D7C184;}
	.st19{fill:#9F8F78;}
	.st20{fill:#6E6A67;}
	.st21{fill:#93232C;}
	.st22{fill:#731B2A;}
	.st23{fill:url(#SVGID_1_);}
	.st24{fill:url(#SVGID_2_);}
	.st25{fill:url(#SVGID_3_);}
	.st26{fill:#FFB13B;stroke:#000000;stroke-width:3.73;}
	.st27{fill:#FFB13B;}
	.st28{fill:#E94335;}
	.st29{fill:#34A853;}
	.st30{fill:#4285F3;}
	.st31{fill:#FABB06;}
	.st32{fill:url(#SVGID_4_);}
	.st33{fill:#6F95DB;}
	.st34{fill:#FFFFFF;fill-opacity:0.1;}
	.st35{fill:#0C0824;}
	.st36{fill:#31C5F0;}
	.st37{fill:#1C0A00;}
	.st38{fill:#FF7F18;}
	.st39{fill:#4B32C3;}
	.st40{fill:#8080F2;}
	.st41{fill-rule:evenodd;clip-rule:evenodd;fill:#8C96A1;}
	.st42{fill:#8C96A1;}
	.st43{fill-rule:evenodd;clip-rule:evenodd;fill:url(#path3338_1_);stroke:#0C4C75;stroke-width:0.5;}
	.st44{fill-rule:evenodd;clip-rule:evenodd;fill:#EA4335;}
	.st45{fill-rule:evenodd;clip-rule:evenodd;fill:#4285F4;}
	.st46{fill-rule:evenodd;clip-rule:evenodd;fill:#34A853;}
	.st47{fill-rule:evenodd;clip-rule:evenodd;fill:#FBBC05;}
</style>
<g>
	<path class="st0" d="M157.53,466h119.8c14.18,0,25.67,11.75,25.67,26.25v122.5c0,14.5-11.49,26.25-25.67,26.25h-119.8
		c-14.18,0-25.67-11.75-25.67-26.25v-122.5C131.86,477.75,143.35,466,157.53,466z"/>
	<ellipse class="st1" cx="217.43" cy="553.5" rx="12.03" ry="12.3"/>
	<path class="st2" d="M237.98,565.61c16.39-30.18,19.89-59.03,7.82-64.43c-12.07-5.41-35.13,14.67-51.52,44.85
		s-19.89,59.03-7.82,64.43c12.06,5.41,35.12-14.65,51.5-44.82L237.98,565.61z M196.9,565.64c16.4,30.17,39.46,50.23,51.51,44.79
		c12.05-5.44,8.53-34.3-7.87-64.47s-39.46-50.23-51.51-44.79c-12.05,5.43-8.53,34.28,7.85,64.44L196.9,565.64z M217.45,577.75
		c33.78,0,61.16-10.87,61.15-24.27c-0.01-13.4-27.4-24.26-61.19-24.26s-61.16,10.87-61.15,24.27c0.01,13.4,27.38,24.26,61.15,24.26
		H217.45z"/>
</g>
<g>
	<path class="st3" d="M31.8,562h111.08c13.15,0,23.8,10.54,23.8,23.55v109.9c0,13.01-10.66,23.55-23.8,23.55H31.8
		C18.66,719,8,708.46,8,695.45v-109.9C8,572.54,18.66,562,31.8,562z"/>
	<path d="M127.33,692.02c3.1,5.21,7.44,8.89,14.57,8.89c6.2,0,10.23-3.07,10.23-7.36c0-4.91-4.03-6.75-10.85-9.81l-3.72-1.53
		c-10.85-4.6-17.98-10.12-17.98-22.08c0-11.04,8.37-19.63,21.7-19.63c9.61,0,16.43,3.37,21.08,11.96l-11.47,7.36
		c-2.48-4.6-5.27-6.44-9.61-6.44c-4.34,0-7.13,2.76-7.13,6.44c0,4.29,2.79,6.13,9.3,8.89l3.72,1.53
		c12.71,5.52,19.84,10.73,19.84,23.3c0,13.19-10.54,20.54-24.8,20.54c-13.95,0-22.94-6.44-27.27-15.03L127.33,692.02z M74.64,693.24
		c2.48,3.99,4.34,7.67,9.61,7.67c4.96,0,8.06-1.84,8.06-9.2v-50.9h14.88v50.29c0,15.33-8.99,22.08-22.32,22.08
		c-12.09,0-18.91-6.13-22.32-13.49L74.64,693.24z"/>
</g>
<g>
	<polygon class="st4" points="40.64,192.31 25.69,33 190,33 175.03,192.28 107.74,210 	"/>
	<polygon class="st5" points="107.84,196.46 162.22,182.14 175.01,46.03 107.84,46.03 	"/>
	<polygon class="st6" points="107.84,105.11 80.63,105.11 78.75,85.1 107.84,85.1 107.84,65.56 107.77,65.56 56.27,65.56 
		56.76,70.81 61.81,124.65 107.84,124.65 	"/>
	<polygon class="st6" points="107.84,155.85 107.75,155.88 84.84,150 83.38,134.42 72.25,134.42 62.73,134.42 65.61,165.09 
		107.75,176.21 107.84,176.18 	"/>
	<polygon class="st0" points="107.77,105.11 107.77,124.65 133.1,124.65 130.72,149.99 107.77,155.87 107.77,176.2 149.94,165.09 
		150.25,161.79 155.08,110.36 155.59,105.11 150.04,105.11 	"/>
	<polygon class="st0" points="107.77,65.56 107.77,77.7 107.77,85.06 107.77,85.1 157.39,85.1 157.39,85.1 157.46,85.1 
		157.87,80.71 158.81,70.81 159.3,65.56 	"/>
</g>
<g>
	<path class="st7" d="M309.13,239.5l-66.1-63.74c-3.79-3.67-9.96-3.68-13.76-0.02c-0.01,0.01-0.02,0.02-0.02,0.02L215.52,189
		l17.41,16.79c6.05-1.99,12.63,1.13,14.69,6.97c0.83,2.36,0.82,4.91-0.02,7.26l16.76,16.16c6.05-2,12.64,1.1,14.72,6.94
		s-1.14,12.19-7.19,14.2s-12.64-1.1-14.72-6.94c-0.92-2.57-0.83-5.38,0.25-7.89l-15.65-15.09v39.71c5.73,2.74,8.07,9.43,5.23,14.96
		c-2.84,5.52-9.78,7.78-15.51,5.05c-5.73-2.74-8.07-9.43-5.23-14.96c1.25-2.43,3.37-4.34,5.97-5.37v-40.08
		c-5.93-2.35-8.76-8.88-6.33-14.6c0.01-0.02,0.02-0.05,0.03-0.07l-17.14-16.54l-45.33,43.72c-3.81,3.66-3.82,9.6-0.03,13.27
		c0.01,0.01,0.02,0.02,0.03,0.03l66.1,63.72c3.79,3.67,9.96,3.68,13.76,0.02c0.01-0.01,0.02-0.02,0.02-0.02l65.8-63.46
		c3.81-3.66,3.82-9.6,0.03-13.27c-0.01-0.01-0.02-0.02-0.03-0.03"/>
	<path class="st0" d="M215.52,189l17.41,16.79c6.05-1.99,12.63,1.13,14.69,6.97c0.83,2.36,0.82,4.91-0.02,7.26l16.76,16.16
		c6.05-2,12.64,1.1,14.72,6.94s-1.14,12.19-7.19,14.2s-12.64-1.1-14.72-6.94c-0.92-2.57-0.83-5.38,0.25-7.89l-15.65-15.09v39.71
		c5.73,2.74,8.07,9.43,5.23,14.96c-2.84,5.52-9.78,7.78-15.51,5.05c-5.73-2.74-8.07-9.43-5.23-14.96c1.25-2.43,3.37-4.34,5.97-5.37
		v-40.08c-5.93-2.35-8.76-8.88-6.33-14.6c0.01-0.02,0.02-0.05,0.03-0.07l-17.14-16.54"/>
</g>
<g>
	<polygon class="st8" points="290.1,606.12 274,446 451,446 434.88,606.09 362.39,623.9 	"/>
	<polygon class="st9" points="362.5,610.29 421.07,595.9 434.85,459.09 362.5,459.09 	"/>
	<polygon class="st0" points="362.5,517.1 391.82,517.1 393.84,496.99 362.5,496.99 362.5,477.35 362.58,477.35 418.06,477.35 
		417.53,482.62 412.09,536.74 362.5,536.74 	"/>
	<polygon class="st6" points="362.64,568.1 362.54,568.13 337.86,562.22 336.28,546.56 324.29,546.56 314.03,546.56 317.14,577.39 
		362.53,588.56 362.64,588.54 	"/>
	<polygon class="st0" points="389.94,535.91 387.27,562.21 362.56,568.11 362.56,588.55 407.98,577.39 408.32,574.07 412.17,535.91 
			"/>
	<polygon class="st6" points="362.58,477.35 362.58,489.55 362.58,496.94 362.58,496.99 309.12,496.99 309.12,496.99 309.05,496.99 
		308.61,492.58 307.6,482.62 307.07,477.35 	"/>
	<polygon class="st6" points="362.5,517.1 362.5,529.3 362.5,536.69 362.5,536.74 338.2,536.74 338.2,536.74 338.13,536.74 
		337.69,532.33 336.68,522.37 336.15,517.1 	"/>
</g>
<g>
	<path class="st10" d="M152.43,327.93c-3.97,6.93-8.71,13.38-14.14,19.23c-1.6,1.74-3.34,3.36-5.18,4.84l10.73-0.13l26.01,12.57
		c2.8,1.62,10.28-6.1,16.72-17.23c6.43-11.13,9.39-21.46,6.59-23.08l-24.36-16.05l-5.14-8.96c-0.36,2.36-0.9,4.69-1.62,6.97
		C159.68,313.71,156.46,321.03,152.43,327.93z M86.67,254.39c-3.97,9.33-8.55,18.4-13.69,27.14c-5.01,8.82-10.59,17.31-16.69,25.4
		c-1.93,2.58-4.07,4.99-6.4,7.2c-0.61,0.57-1.28,1.09-1.99,1.54l41.95,18.45c-0.56-0.59-1.11-1.21-1.64-1.85
		c-1.09-1.31-2.11-2.68-3.05-4.1c-0.91-1.4-1.74-2.86-2.48-4.37c-0.7-1.42-1.3-2.89-1.79-4.4c-0.45-1.37-0.78-2.79-0.97-4.22
		c-0.17-1.26-0.18-2.54-0.03-3.81c0.14-1.12,0.5-2.2,1.07-3.18c0.65-1.1,1.58-2.01,2.69-2.64c1.38-0.74,2.91-1.15,4.47-1.2
		c0.38-0.04,0.75,0,1.11,0.13c0.31,0.11,0.61,0.24,0.89,0.41c0.55,0.28,0.98,0.74,1.21,1.31c0.19,0.45,0.16,0.96-0.08,1.39
		c-0.27,0.41-0.7,0.68-1.19,0.73c-0.77,0.11-1.55,0.15-2.33,0.12c-0.74-0.03-1.49,0.11-2.17,0.42c-0.55,0.27-1,0.7-1.31,1.23
		c-0.51,1.01-0.7,2.15-0.53,3.26c0.17,1.5,0.53,2.96,1.07,4.36c0.63,1.69,1.4,3.32,2.28,4.88c0.93,1.67,1.97,3.27,3.1,4.8
		c1.08,1.47,2.26,2.85,3.55,4.13c1.07,1.1,2.28,2.06,3.6,2.86c0.4,0.23,0.82,0.43,1.24,0.61c0.41,0.18,0.85,0.29,1.29,0.34
		c0.39,0.05,0.78,0.02,1.16-0.11c0.38-0.14,0.69-0.42,0.88-0.78c0.28-0.54,0.43-1.14,0.43-1.75c0.03-0.81-0.02-1.62-0.14-2.42
		c-0.13-0.92-0.32-1.84-0.56-2.74c-0.24-0.95-0.52-1.86-0.83-2.74c-0.31-0.88-0.63-1.68-0.96-2.41c-0.26-0.61-0.58-1.2-0.94-1.76
		l-3.93-4.48c-0.37-0.4-0.62-0.91-0.69-1.46c-0.04-0.42,0.05-0.84,0.25-1.2c0.1-0.17,0.22-0.32,0.37-0.45
		c0.32-0.28,0.74-0.41,1.16-0.34c0.26,0.04,0.5,0.13,0.72,0.26c0.63,0.36,1.22,0.78,1.77,1.26c0.52,0.45,1,0.94,1.46,1.45
		c0.45,0.5,0.89,1.03,1.32,1.58c0.43,0.55,0.89,1.11,1.38,1.68c0.15,0.23,0.32,0.44,0.51,0.64c0.31,0.35,0.68,0.76,1.12,1.26
		c0.44,0.49,0.94,1.04,1.52,1.66l1.73,1.86c0.58,0.63,1.16,1.25,1.73,1.84c0.57,0.6,1.09,1.13,1.55,1.62l1.16,1.21
		c0.31,0.32,0.47,0.51,0.55,0.58c0.21,0.22,0.4,0.46,0.57,0.71c0.2,0.29,0.36,0.59,0.5,0.91c0.12,0.29,0.2,0.6,0.24,0.92
		c0.04,0.27-0.01,0.55-0.14,0.8c-0.16,0.34-0.48,0.57-0.85,0.61c-0.55-0.04-1.07-0.22-1.52-0.54l-0.29-0.17
		c-0.11-0.05-0.21-0.11-0.31-0.18c-0.38-0.32-0.73-0.68-1.05-1.06c-0.51-0.52-1.09-1.11-1.73-1.78c-0.64-0.67-1.29-1.38-1.96-2.13
		c-0.67-0.74-1.27-1.41-1.79-2c0.33,1.03,0.62,2.11,0.88,3.25c0.25,1.1,0.43,2.21,0.54,3.34c0.1,1.03,0.1,2.07-0.01,3.11
		c-0.08,0.9-0.35,1.77-0.79,2.56c-0.42,0.76-1.03,1.4-1.78,1.84c-0.13,0.07-0.26,0.13-0.39,0.19L129.08,352
		c1.92,0.27,12.61-9.4,21.67-25.06c9.06-15.66,12.1-29.76,10.9-31.28l-27.71-20.7l0.28,1.27c0.31,1.38,0.55,2.78,0.72,4.19
		c0.15,1.15,0.16,2.32,0.03,3.48c-0.13,1.06-0.48,2.09-1.03,3.02c-0.38,0.77-1.01,1.39-1.79,1.76c-0.67,0.27-1.42,0.2-2.03-0.18
		l-0.16-0.09c-0.06-0.03-0.12-0.06-0.18-0.1c-0.46-0.38-0.84-0.85-1.12-1.39c-0.38-0.69-0.72-1.41-1.01-2.14
		c-0.32-0.79-0.63-1.61-0.94-2.47c-0.3-0.86-0.59-1.66-0.87-2.4c-0.24-0.66-0.53-1.3-0.84-1.93c-0.18-0.42-0.47-0.78-0.83-1.05
		c-0.15-0.09-0.33-0.11-0.5-0.05c-0.21,0.11-0.38,0.29-0.48,0.5c-0.29,0.52-0.46,1.09-0.49,1.68c-0.05,0.69-0.01,1.39,0.11,2.07
		c0.13,0.76,0.32,1.52,0.57,2.25c0.26,0.77,0.55,1.53,0.88,2.27c0.33,0.74,0.69,1.44,1.08,2.12c0.39,0.68,0.75,1.27,1.09,1.78
		l0.47,0.68c0.2,0.29,0.43,0.61,0.69,0.97s0.52,0.72,0.79,1.11c0.28,0.39,0.54,0.75,0.77,1.07l0.65,0.89
		c0.19,0.26,0.32,0.44,0.39,0.55c0.07,0.1,0.25,0.34,0.54,0.7c0.27,0.34,0.58,0.73,0.94,1.18l1.13,1.43l1.13,1.4l0.94,1.15
		c0.27,0.33,0.45,0.55,0.56,0.66c0.28,0.32,0.54,0.65,0.77,1.01c0.22,0.32,0.39,0.67,0.52,1.04c0.12,0.33,0.17,0.69,0.16,1.04
		c-0.01,0.36-0.12,0.71-0.3,1.03c-0.2,0.39-0.52,0.7-0.91,0.89c-0.48,0.15-1,0.06-1.39-0.24c-0.29-0.17-0.55-0.37-0.79-0.6
		c-0.25-0.24-0.49-0.5-0.71-0.77c-0.23-0.27-0.45-0.55-0.64-0.81s-0.4-0.52-0.6-0.76c-1.02-1.44-2.03-2.9-3.03-4.37
		c-1.01-1.47-2.02-2.91-3.03-4.31c-0.21-0.29-0.43-0.58-0.63-0.86l0.05,0.17c0.27,1.14,0.47,2.29,0.59,3.46
		c0.12,1.01,0.12,2.04,0.02,3.06c-0.08,0.87-0.34,1.72-0.77,2.49c-0.23,0.43-0.55,0.8-0.94,1.09c-0.32,0.23-0.69,0.37-1.07,0.42
		c-0.4,0.04-0.8,0-1.18-0.12c-0.12-0.07-0.28-0.1-0.42-0.16c0.04,0.3,0.07,0.6,0.1,0.9c0.09,0.96,0.08,1.93-0.02,2.89
		c-0.06,0.77-0.28,1.52-0.65,2.2c-0.29,0.53-0.79,0.92-1.38,1.06c-0.79,0.09-1.58-0.11-2.22-0.58c-0.74-0.45-1.43-0.97-2.06-1.57
		c0.38,0.68,0.71,1.38,0.97,2.12c0.29,0.8,0.49,1.62,0.6,2.47c0.11,0.88,0.1,1.76-0.05,2.64c-0.15,0.93-0.48,1.83-0.97,2.65
		c-0.22,0.38-0.49,0.74-0.8,1.05c-0.3,0.3-0.66,0.53-1.05,0.66c-0.43,0.14-0.89,0.18-1.33,0.11c-0.58-0.09-1.14-0.3-1.63-0.61
		c0,0-0.22-0.13-0.59-0.44c-0.59-0.48-1.15-1.01-1.67-1.57c-0.73-0.77-1.66-1.82-2.77-3.16c-1.12-1.34-2.38-3.08-3.78-5.21
		c-0.34-0.44-0.57-0.97-0.65-1.53c-0.05-0.44,0.05-0.88,0.27-1.26c0.1-0.17,0.23-0.34,0.38-0.48c0.15-0.15,0.33-0.28,0.52-0.37
		c0.19-0.09,0.4-0.14,0.61-0.14c0.23,0,0.46,0.07,0.66,0.19c0.13,0.08,0.26,0.17,0.37,0.28c0.27,0.28,0.5,0.59,0.7,0.92
		c0.27,0.42,0.57,0.9,0.91,1.45c0.34,0.55,0.71,1.13,1.11,1.75c0.4,0.62,0.83,1.23,1.29,1.83c0.46,0.6,0.96,1.17,1.49,1.72
		c0.5,0.52,1.06,0.98,1.66,1.37c0.24,0.14,0.51,0.21,0.79,0.21c0.27,0,0.53-0.16,0.65-0.4c0.45-0.8,0.64-1.73,0.53-2.64
		c-0.11-1.04-0.35-2.05-0.74-3.02c-0.41-1.04-0.89-2.04-1.46-2.99c-0.57-0.97-1.12-1.83-1.64-2.56c-0.36-0.51-0.75-1-1.18-1.46
		c-0.41-0.46-0.8-0.94-1.16-1.45c-0.31-0.41-0.57-0.87-0.75-1.36c-0.16-0.41-0.12-0.87,0.11-1.25c0.22-0.41,0.61-0.68,1.06-0.74
		c0.48-0.06,0.96,0.04,1.37,0.29c0.34,0.23,0.64,0.51,0.89,0.83c0.34,0.41,0.73,0.89,1.16,1.45c0.43,0.55,0.87,1.16,1.34,1.83
		c0.48,0.65,0.97,1.29,1.48,1.92c0.5,0.59,1.03,1.16,1.59,1.7c0.49,0.48,1.03,0.91,1.62,1.26c0.34,0.26,0.83,0.19,1.09-0.16
		c0.04-0.06,0.08-0.12,0.11-0.19c0.25-0.5,0.39-1.04,0.42-1.59c0.06-0.78,0.05-1.56-0.06-2.33c-0.03-0.22-0.05-0.44-0.09-0.65
		c-0.55-0.52-1.07-1.08-1.54-1.67c-0.84-1.04-1.67-2.08-2.49-3.13l-2.26-2.86l-10.28-13.15c-0.38-0.42-0.61-0.96-0.65-1.53
		c-0.02-0.45,0.08-0.9,0.3-1.29c0.21-0.37,0.54-0.65,0.93-0.8c0.48-0.16,1-0.08,1.41,0.21c0.27,0.16,0.5,0.37,0.7,0.61
		c0.24,0.29,0.46,0.59,0.67,0.9c0.48,0.67,1.07,1.49,1.78,2.44c0.7,0.96,1.47,1.99,2.31,3.1c0.83,1.11,1.71,2.26,2.61,3.44
		l2.67,3.47c0.88,1.13,1.7,2.19,2.47,3.19l2.03,2.59c0.28,0.36,0.58,0.7,0.89,1.03c0.3,0.33,0.66,0.62,1.04,0.85
		c0.17,0.11,0.36,0.17,0.56,0.18c0.19-0.01,0.35-0.13,0.43-0.3c0.17-0.34,0.26-0.71,0.28-1.08c0.05-0.54,0.05-1.07,0.02-1.61
		c-0.03-0.6-0.1-1.24-0.19-1.92c-0.1-0.68-0.21-1.37-0.34-2.07c-0.12-0.68-0.25-1.36-0.41-2.02c-0.16-0.66-0.31-1.25-0.44-1.76
		c-0.03-0.12-0.04-0.25-0.02-0.38c-0.46-0.53-0.93-1.05-1.41-1.54c-0.2-0.24-0.47-0.57-0.84-1.01c-0.36-0.44-0.7-0.89-1.01-1.36
		c-0.3-0.43-0.54-0.9-0.73-1.39c-0.15-0.36-0.13-0.78,0.06-1.13c0.18-0.39,0.51-0.7,0.92-0.85c0.39-0.08,0.8,0,1.13,0.23
		c0.13,0.08,0.26,0.17,0.38,0.26c0.18,0.1,0.34,0.27,0.52,0.42s0.35,0.3,0.51,0.45c0.12,0.11,0.23,0.22,0.33,0.35
		c-0.22-0.71-0.41-1.46-0.58-2.24c-0.17-0.76-0.28-1.54-0.34-2.32c-0.06-0.73-0.04-1.47,0.06-2.2c0.08-0.67,0.3-1.32,0.64-1.91
		c0.23-0.4,0.51-0.76,0.84-1.07c0.32-0.31,0.68-0.56,1.09-0.75c0.39-0.18,0.81-0.27,1.24-0.27c0.47,0,0.92,0.13,1.31,0.38
		c0.62,0.38,1.16,0.89,1.57,1.49c0.5,0.7,0.94,1.44,1.31,2.22c0.4,0.82,0.76,1.66,1.08,2.52s0.61,1.67,0.85,2.41l0.64,1.87
		c0.08,0.33,0.23,0.63,0.44,0.89c0.15,0.09,0.33,0.12,0.5,0.07c0.21-0.08,0.37-0.24,0.47-0.45c0.14-0.34,0.21-0.72,0.18-1.09
		c-0.01-0.77-0.08-1.55-0.2-2.31c-0.14-1.03-0.35-2.35-0.64-3.96c-0.2-1.11-0.45-2.42-0.74-3.9l-40.26-29.57
		c-0.04,0.84-0.15,1.67-0.34,2.49C88.99,248.38,87.95,251.43,86.67,254.39z M61.28,274.77c-11.79,20.39-19.1,38.21-16.33,39.81
		c2.77,1.6,14.53-13.58,26.34-34.02s19.1-38.21,16.33-39.81C84.86,239.15,73.06,254.4,61.28,274.77z M76.28,263.78
		c0.65,0.38,0.02,2.63-1.39,5.05c-1.4,2.42-3.06,4.08-3.68,3.72c-0.62-0.36-0.02-2.63,1.39-5.05c1.4-2.42,3.01-4.08,3.66-3.71
		L76.28,263.78z"/>
	<path class="st10" d="M71.18,271.37c0.02,0.04,0.05,0.07,0.08,0.09c0.42,0.24,1.67-1.14,2.78-3.06c1.11-1.92,1.69-3.7,1.27-3.94
		l-15.72-15.25l-8.45-29.37l0,0c-0.21-0.63-2-0.63-3.91,0.02c-1.91,0.64-3.11,1.83-2.92,2.52l0,0l8.97,31.21L71.18,271.37z"/>
</g>
<g>
	<path class="st11" d="M335.52,9.36l144.56,133.65c17.11,15.82,19.45,41.11,5.24,56.48L365.2,329.43
		c-14.22,15.38-39.61,15.02-56.72-0.8L163.91,194.99c-17.11-15.82-19.45-41.11-5.24-56.48L278.8,8.57
		C293.02-6.81,318.42-6.45,335.52,9.36z"/>
	<path class="st12" d="M259.89,163.35l36.3,33.56 M388.93,214.74l-22.79,24.65 M370.78,197.96l-22.79,24.65 M325.61,156.2
		l-15.08,16.31 M294.69,180.74l85.92,79.43l37.54-40.6L264.06,77.11l-37.54,40.6l45.58,42.14l33.85-36.62 M280.43,114.43
		l-22.79,24.65 M351.13,165l-30.17,32.63"/>
</g>
<path class="st13" d="M276.26,416.28c-6.07,2.13-11.63,5.47-16.26,9.78c-2.6-1.95-4.88-4.23-6.77-6.78c-1.3-2.06-2.22-4.33-2.74-6.7
	c-0.28-2.71-0.38-5.45-0.29-8.2c-0.15-0.3-1.05-1.66-4.96-0.35c-3.91,1.31-7.01,3.2-7.05,4.24c-0.09,1.92-0.02,3.84,0.18,5.74
	c-0.73,8.26-2.3,16.48-4.7,24.57c-3.95-2.93-6.6-7.07-7.52-11.75c-0.28-2.71-0.38-5.45-0.29-8.2c-0.15-0.3-1.05-1.66-4.96-0.35
	c-3.91,1.31-7.01,3.2-7.05,4.24c-0.04,1.05,0.27,3.39,0.18,5.74c-0.08,2.35-2.91,24.59-3.68,30.33c-0.4,2.93-0.8,5.33-1.09,6.97l0,0
	c-0.01,0.1-0.02,0.2-0.05,0.3c-0.28,1.41-0.42,2.18-0.42,2.18l0.01,0.03c-0.23,1.04-0.52,2.03-0.81,2.13
	c-1.11-1.6-1.74-3.46-1.81-5.41c-0.91-7.05-1.1-18.45-1.25-18.79c-0.07-0.19-0.05-2.19-3.2-2.12c-1.54-0.1-3.06,0.7-3.78,2.02
	c-0.25,0.09-0.23,0.69-0.23,0.69s-0.94-12.56-9.88-9.43c-6.59,3.73-11.44,9.65-13.46,16.42c-2,2.01-6.24,6.31-10.78,10.92
	c-1.71,1.77-3.51,3.58-5.17,5.29c-0.18-0.08-0.38-0.19-0.56-0.26c-14.52-6.6-37.1-6.96-41.1-21.18
	c-1.46-5.19-4.17-19.19,26.33-48.01c25.16-23.56,50.12-28.19,57.04-21.54c9.9,9.5-1.16,37.43-30.82,51.28
	c-6.45,3.66-14.17,4.54-20.98,2.38c-2.18-1.02-2.46-1.03-2.95-0.5c-0.82,0.82,0.31,2.03,0.95,2.73c3.72,3.02,8.71,4.45,13.84,3.96
	c12.92-1.88,25.14-7.41,34.93-15.81c16.4-12.99,24.63-36.05,15.1-49.63c-9.62-13.8-39.66-8.96-63.43,8.94
	c-14.99,10.92-27.69,24.31-37.38,39.4c-10.42,17.53-8.99,29.09-6.46,33.27c9.04,14.78,37.22,16.61,49.74,20.9
	c-0.41,0.43-0.79,0.81-1.11,1.13c-4.15,3.91-19.81,19.24-21.25,30.17c-1.62,12.4,7.17,17.79,11.59,17.38
	c13.5-1.69,24.91-11.01,28.42-23.21c3.03-10.07,0.6-20.54-6.51-28.02c-0.06-0.06-0.13-0.11-0.21-0.14l3.14-3.37
	c2.04-2.21,4.09-4.31,5.85-6.07c-0.14,4.23,0.38,8.41,1.53,12.43c1.62,6.2,5.77,11.46,11.62,14.73c1.64,0.55,3.49,0.45,5.14-0.27
	c4.15-1.45,4.96-5.22,5.76-9.63c0.97-5.39,1.43-11.43,1.43-11.43s2.08,15.15,9.86,12.43c2.83-0.99,4.53-5.29,5.23-7.4l0.01,0.03
	c0,0,0.04-0.12,0.1-0.39l0.22-0.82l-0.02-0.06c0.51-2.17,1.65-7.09,3.09-15.11c1.86-10.33,2.79-22.76,2.79-22.76
	c1.28,2.21,2.73,4.34,4.32,6.35c2.11,2.39,4.41,4.63,6.87,6.71c-0.63,1.82-1.06,2.86-1.06,2.86l0.05,0.02
	c-0.54,1.4-1.12,2.92-1.82,4.44c-2.14,4.37-3.98,8.84-5.51,13.39c-0.42,1.55,0.52,3.05,2.15,3.42c1.69,0.17,3.44-0.16,4.98-0.95
	c2.4-0.98,4.63-2.31,6.6-3.94c1.94-1.45,3.66-3.14,5.11-5.02c3.07-3.81,3.86-8.69,2.09-12.87c-1.14-2.57-2.8-4.9-4.9-6.87
	c0.2-0.57,0.38-1.13,0.56-1.69c2.09-6.64,3.71-13.36,4.86-20.14c1.28,2.21,2.73,4.34,4.32,6.35c1.78,2.08,3.75,4.01,5.89,5.77
	c-3.43,4.7-5.56,10.05-6.18,15.54c-0.21,6.55,2.43,8.55,5.9,8.01c1.82-0.51,3.49-1.47,4.83-2.75c2.1-1.51,3.95-3.3,5.48-5.3
	c3.47-3.75,4.77-8.73,3.46-13.24c-0.92-2.13-2.22-4.08-3.84-5.78c5.23-4.18,11.47-7.1,18.09-8.5c17.44-4.1,24.06,4.16,24.81,8.35
	c0.39,3.06-0.69,6.21-2.96,8.65c-0.94,1.07-1.24,1.43-0.97,1.87c0.38,0.65,0.92,0.42,1.88-0.05c4.68-3.26,6.89-8.71,5.54-13.7
	c-2.72-9.49-16.18-16.24-33.65-10.03L276.26,416.28z M160.19,500.89c-3.68,7.41-10.73,12.19-14.7,11.62
	c-4.26-0.6-5.66-9.16-0.82-17.34c2.92-4.71,6.29-9.19,10.06-13.38c0.66-0.73,1.64-1.78,2.81-3.07l0.32-0.33l0,0l0.68-0.77
	C163.65,484.25,164.28,493.15,160.19,500.89z M192.16,461.88c-0.46,4.93-0.72,17.23-3.4,17.49c-2.3,0.23-6.52-7.55-6.33-16.76
	c0.16-4.46,1.11-8.91,2.8-13.19c1.98-4.11,4.98-6.3,6.22-5.34C192.66,449.88,192.9,455.88,192.16,461.88z M230.74,464.56
	c-0.68,0.66-1.37,1.18-1.79,1.13c-0.29-0.04,0.14-0.74,0.14-0.74s2.79-5.53,3.81-7.95c0.58-1.41,1.25-3.07,1.97-4.93l0.14,0.41
	c1.7,4.85-2.39,9.95-4.26,12.1L230.74,464.56z M254.76,450.22c-0.73-0.17-1.07-1.48-0.44-6.15c0.51-3.04,1.68-5.99,3.44-8.68
	c0.7,0.81,1.23,1.73,1.59,2.72C260.92,442.46,259.04,447.43,254.76,450.22L254.76,450.22z"/>
<g>
	<path class="st14" d="M397.63,314.51c-0.07-0.51-0.15-1.02-0.26-1.52c-0.1-0.53-0.22-1.06-0.37-1.58l-0.4-0.63
		c-1.63-1.22-3.39-2.26-5.25-3.1c-1.49-0.7-3.01-1.3-4.55-1.86c-4.1-11.6-11.49-21.8-21.3-29.36c-20.02-15.27-47.96-15.27-67.99,0
		c-9.81,7.56-17.2,17.75-21.3,29.35c-1.54,0.56-3.05,1.17-4.54,1.86c-1.86,0.84-3.62,1.88-5.25,3.1l-0.4,0.63
		c-0.16,0.57-0.26,1.06-0.37,1.58c-0.11,0.52-0.18,1.02-0.26,1.52c-0.15,1.02-0.25,2.06-0.3,3.09c-0.11,2.08-0.05,4.16,0.19,6.23
		c0.22,2.07,0.61,4.11,1.16,6.12c0.29,1.02,0.62,2,1.03,2.98c0.2,0.51,0.41,0.98,0.64,1.47c0.12,0.24,0.24,0.48,0.37,0.73
		c0.29,0.51,0.34,0.59,0.46,0.77l0.55,0.51c0.35,0.18,0.65,0.31,0.97,0.47l0.94,0.41l0.51,0.21c-4.93,4.47-9.25,9.56-12.86,15.13
		l-5.05,7.84l7.08-6.13c5-4.07,10.33-7.73,15.94-10.92l0.14,1.12c-1.62,0.8-3.18,1.71-4.68,2.71c-1.54,1.26-1.61,3.21-1.2,6.85
		c0.41,2.98,1.04,5.92,1.87,8.81c1.65,5.71,2.85,6.72,3.91,6.96c0.59,0.12,1.19,0.18,1.79,0.17c2-0.02,3.98-0.31,5.91-0.84
		c1.77,5.48,4.38,10.66,7.71,15.38l-0.46,0.13c-1.93-0.88-8.68-3.97-10.95-4.98l-4.74-2.11l2.8,4.32c0.21,0.31,5.04,7.76,8.99,12.78
		c4.08,6.02,10.97,9.58,18.31,9.48c1.2,0,2.4-0.07,3.6-0.21c2.85-0.32,4.99-0.58,6.61-0.78c10.18,3.76,21.4,3.74,31.57-0.07
		c2.75-1.03,5.39-2.32,7.89-3.85c4.04-0.96,8.47-2,10.65-2.6c0.35-0.09,0.79-0.2,1.24-0.3c4.57-0.56,8.6-3.24,10.85-7.21
		c2.74-5.41,7.2-13.71,7.24-13.77l2.08-3.86l-4.06,1.74c-0.22,0.1-5.36,2.31-8.04,3.7c1.31-2.95,2.42-5.97,3.33-9.06
		c1.77,0.28,3.56,0.39,5.35,0.31c0.73-0.01,1.46-0.1,2.16-0.27c1.06-0.26,1.88-0.96,3.42-6.86c0.79-2.98,1.36-6.02,1.72-9.08
		c0.34-3.73,0.23-5.73-1.31-7c-1.33-0.9-2.73-1.71-4.17-2.42c0.3-0.16,0.64-0.23,0.98-0.18l1.03-3.9c0.37-0.15,0.76-0.31,1.2-0.48
		c0.63-0.25,1.26-0.51,1.89-0.76l0.93-0.41c0.32-0.15,0.61-0.28,0.97-0.47l0.55-0.51c0.09-0.13,0.17-0.27,0.25-0.41
		c0.34-0.61,0.46-0.85,0.58-1.09c0.24-0.51,0.44-0.98,0.64-1.47c0.39-0.99,0.72-1.98,1.03-2.98c0.55-2.01,0.94-4.05,1.17-6.12
		c0.23-2.06,0.29-4.14,0.18-6.21c-0.05-1.02-0.15-2.07-0.3-3.09L397.63,314.51z"/>
	<path class="st15" d="M338.08,394.82c-0.77,0.11-1.54,0.21-2.29,0.26c-0.51,0-1.03,0.07-1.48,0.07h-0.17
		c0.59-1.3,1.03-2.32,1.38-3.08C336.21,392.84,337.09,393.79,338.08,394.82"/>
	<path class="st16" d="M337.15,336.56c-1.2,0.96-2.46,1.85-3.78,2.64l-4.39,2.61c-1.78,0.22-3.55,0.57-5.28,1.05
		c-0.08,0.02-0.16,0.05-0.23,0.1c-0.22,0.13-0.38,0.33-0.45,0.57l-4.47,14.54l-23.9,5.24l-7.53-5.2l-2.19-17.51
		c4.27-0.78,9.99-1.67,16.85-2.43c-0.74,0.87-1.45,1.78-2.13,2.74l-4.09,5.79l5.95-3.91c3.24-2.03,6.61-3.88,10.07-5.52
		c6.17-0.46,13-0.75,20.29-0.75c1.78,0,3.53,0,5.24,0.05H337.15z M299.96,356.3c2.11-0.79,4.38-1.05,6.62-0.77c0.32,0,0.65,0,1,0
		h0.91c3.09-0.03,5.66,0.26,5.62-4.53c-0.04-4.79-2.21-8.67-5.3-8.63s-6.08,3.96-5.9,8.75c-0.01,0.96,0.17,1.91,0.51,2.8
		c-1.47,0.24-2.76,1.13-3.48,2.42L299.96,356.3z"/>
	<path class="st16" d="M378.56,340.53l-2.17,14.89l-7.57,5.24l-23.86-2.68l-4.45-14.48c-0.1-0.32-0.36-0.57-0.68-0.67
		c-2.04-0.56-4.13-0.94-6.23-1.14l0.57-0.04c6.32-0.84,12.53-2.31,18.55-4.38c8.66,0.64,17.29,1.72,25.84,3.24L378.56,340.53z
		 M363.31,354.31c-0.03-0.12-0.68-2.03-3.56-1.71c0.38-0.95,0.51-1.98,0.38-3c-0.38-4.78-3.2-8.59-6.29-8.48
		c-3.09,0.11-5.07,4.06-4.9,8.87c0.17,4.81,2.76,4.76,5.85,4.65C358.94,354.57,361.22,353.31,363.31,354.31L363.31,354.31z"/>
	<path class="st0" d="M355.15,345.7c0.02,0.86-0.67,1.57-1.54,1.59c-0.87,0.02-1.59-0.66-1.61-1.52c-0.02-0.86,0.67-1.57,1.54-1.59
		c0,0,0,0,0,0C354.41,344.16,355.13,344.84,355.15,345.7"/>
	<path class="st0" d="M310.86,346.85c0.02,0.86-0.67,1.58-1.54,1.6c-0.87,0.02-1.6-0.66-1.62-1.52c-0.02-0.86,0.67-1.58,1.54-1.6
		c0,0,0,0,0,0C310.11,345.3,310.84,345.98,310.86,346.85C310.86,346.85,310.86,346.85,310.86,346.85"/>
	<path class="st15" d="M388.97,347.08c-0.91-0.61-1.86-1.16-2.83-1.66l-2,13.84c-0.04,0.27-0.2,0.51-0.42,0.67l-2.86,1.98
		c-0.07,0.34-0.12,0.61-0.17,0.87c2.67,0.28,5.32-0.76,7.08-2.76c0.72-2.72,1.23-5.49,1.54-8.28
		C389.63,348.15,389.34,347.38,388.97,347.08"/>
	<path class="st15" d="M344.78,399.66c-1.9-0.67-3.62-1.75-5.04-3.16l-0.37-0.37c-1.16,0.24-2.33,0.41-3.51,0.51
		c-0.51,0-0.98,0.07-1.51,0.07h-1.07c-1.78,2.31-4.27,4-7.1,4.79c6.26,0.74,12.6,0.11,18.59-1.83"/>
	<path class="st15" d="M283.66,365.77c-0.06-0.21-0.13-0.42-0.19-0.62l-3.72-2.57c-0.23-0.16-0.38-0.41-0.42-0.69l-1.81-14.53
		c-1.14,0.57-2.25,1.21-3.31,1.92c-0.36,0.29-0.63,1.02-0.25,4.5c0.45,3.25,1.18,6.47,2.16,9.6
		C278.2,365.16,280.92,366.03,283.66,365.77"/>
	<path class="st15" d="M339.23,365.11c-0.39-0.05-0.72-0.32-0.84-0.7l-4.59-14.92c-1.34-0.21-2.71-0.21-4.05,0l-4.46,14.5
		c-0.11,0.34-0.39,0.59-0.74,0.68l-2.13,0.47c-0.39,1.26-1.46,2.2-2.77,2.43c-8.43,2.69-17.02,4.9-25.71,6.6
		c-2.06-0.61-4.01-1.53-5.8-2.71c-0.76-1.76-1.18-2.96-1.27-3.24l0,0c2.03,5.54,4.81,10.77,8.27,15.56
		c5.74-1.67,10.7-3.23,12.28-3.72c3.23-4.91,7.83-9.79,11.1-9.96c0.57-0.03,1.15-0.05,1.73-0.05c1.52,0,3.04,0.1,4.55,0.28
		c-0.83-0.78-1.39-1.8-1.62-2.9c2.74,1.95,6.11,2.86,9.48,2.54c3.17-0.4,6.16-1.68,8.61-3.7l0.1-0.93l-2.13-0.24"/>
	<path class="st15" d="M343.54,367c-0.85-0.18-1.62-0.59-2.23-1.2l-0.06,0.48c-0.15,1.58-1,3.01-2.33,3.91
		c2.43-0.9,4.97-1.5,7.55-1.78c1-0.01,1.97,0.37,2.67,1.07c0.11,0.1,0.23,0.19,0.37,0.3c3.42,2.66,7.54,5.89,8.74,6.84
		c1.39,0.16,5.82,0.66,8.6,0.91c1.6,0.15,3.05,0.27,4.47,0.27c0.46,0,0.88,0,1.3-0.04c1.56-2.98,2.91-6.06,4.02-9.23
		c-2.18,1.65-4.59,2.98-7.15,3.96C360.74,371.15,352.08,369.33,343.54,367"/>
	<path class="st17" d="M394.99,314.8c-0.04-0.48-0.09-0.95-0.15-1.43c-0.04-0.34-0.09-0.69-0.15-1.02
		c-1.34-1.09-2.78-2.05-4.29-2.89c-1.67-0.96-3.38-1.83-5.14-2.6c-1.75-0.82-3.56-1.56-5.37-2.28c-0.91-0.37-1.82-0.72-2.74-1.05
		c-0.92-0.35-1.84-0.68-2.76-1.02c1.94,0.32,3.86,0.76,5.77,1.24c1.24,0.31,2.47,0.67,3.7,1.05c-7.96-21.9-28.78-36.68-52.34-37.16
		c-23.55,0.48-44.36,15.26-52.32,37.16c1.22-0.38,2.46-0.74,3.7-1.05c1.91-0.51,3.83-0.92,5.77-1.24c-0.93,0.33-1.85,0.66-2.77,1.02
		c-0.92,0.36-1.83,0.69-2.73,1.05c-1.81,0.72-3.6,1.46-5.37,2.28c-1.76,0.78-3.47,1.65-5.14,2.6c-1.51,0.84-2.95,1.8-4.29,2.89
		c-0.05,0.32-0.11,0.68-0.15,1.02c-0.06,0.47-0.11,0.95-0.15,1.43c-0.08,0.96-0.12,1.92-0.12,2.88c-0.03,3.86,0.47,7.7,1.49,11.42
		c0.26,0.92,0.56,1.82,0.89,2.71c0.17,0.44,0.35,0.87,0.55,1.29c0.1,0.21,0.2,0.42,0.3,0.61l0.12,0.23l0.43,0.21l0.86,0.41
		c0.48,0.22,1.15,0.51,1.71,0.78l0.09-0.08l-1.61-6.05c0.34-0.09,3.39-0.87,8.66-1.86c-0.42-0.08-0.85-0.17-1.28-0.27
		c-1.2-0.29-2.38-0.66-3.53-1.11c-0.57-0.23-1.12-0.5-1.66-0.79c-0.55-0.29-1.04-0.66-1.47-1.1c5.79,1.86,17.74,1.02,28.36-0.06
		c9.72-1.03,19.49-1.58,29.26-1.65c9.77,0.07,19.53,0.62,29.25,1.65c10.63,1.09,22.58,1.93,28.36,0.06
		c-0.42,0.44-0.92,0.81-1.46,1.1c-0.54,0.29-1.1,0.56-1.67,0.79c-1.15,0.45-2.33,0.82-3.53,1.11l-0.51,0.12
		c5.77,1.06,9.14,1.92,9.49,2.03l-1.54,5.76c0.31-0.13,0.63-0.27,0.93-0.41l0.87-0.41l0.44-0.21l0.12-0.23
		c0.1-0.2,0.21-0.41,0.3-0.61c0.2-0.42,0.38-0.85,0.55-1.29c0.34-0.88,0.64-1.79,0.89-2.71c1.02-3.72,1.53-7.56,1.51-11.42
		c0-0.96-0.04-1.92-0.13-2.88"/>
	<path class="st18" d="M355.46,303.61c0.17,3.91-0.23,7.82-1.19,11.62c-0.05,0.17-0.05,0.34,0,0.51c-1.54-0.16-3.09-0.3-4.63-0.42
		c1.26-2.77,2.01-5.74,2.2-8.76c1.27-0.91,2.48-1.88,3.63-2.93"/>
	<path class="st18" d="M311.2,306.55c0.19,3.03,0.93,5.99,2.2,8.76c-1.55,0.12-3.09,0.26-4.63,0.42c0.05-0.17,0.05-0.34,0-0.51
		c-0.95-3.8-1.36-7.71-1.19-11.62c1.15,1.04,2.37,2.02,3.64,2.93"/>
	<path class="st18" d="M374.46,319.3l-0.03,0.13l0.51,0.15c1.44,0.44,2.85,0.97,4.23,1.57c-2.43-2.43-4.01-5.55-4.54-8.92
		c0.15,2.36,0.1,4.72-0.16,7.07"/>
	<path class="st18" d="M305.66,302.79l-14.77,4.15c-0.62,3.8-0.78,7.67-0.47,11.51l0.08-0.05c0.19-2.89,0.68-5.76,1.46-8.55
		c0.51-1.22,3.6-2,5.95-2.54c2.36-0.54,6.13-1.67,6.86,1.61c0.37,1.7,0.93,3.36,1.67,4.95
		C305.72,310.22,305.46,306.51,305.66,302.79"/>
	<path class="st18" d="M357.36,302.79c0.22,3.89-0.09,7.78-0.89,11.59c0.88-1.74,1.53-3.57,1.93-5.47c0.73-3.27,4.49-2.16,6.86-1.61
		c2.37,0.55,5.45,1.34,5.95,2.54c0.77,2.65,1.25,5.37,1.43,8.12c0.25-3.69,0.07-7.4-0.51-11.06L357.36,302.79"/>
	<path class="st18" d="M311.08,304.06c0.51,0.42,1.07,0.82,1.61,1.17c0.26,0.18,0.42,0.47,0.42,0.78c0.14,3.1,0.91,6.14,2.26,8.95
		c0.03,0.06,0.05,0.13,0.07,0.19c5.35-0.36,10.71-0.51,16.06-0.51s10.72,0.16,16.06,0.51c0.02-0.07,0.04-0.14,0.08-0.2
		c1.35-2.8,2.12-5.84,2.26-8.95c0.01-0.31,0.17-0.6,0.43-0.78c0.51-0.35,1.03-0.74,1.54-1.13l0.07-0.19
		c0.76-8.58,0-17.22-2.24-25.54c-0.07,3.35-0.87,32.01-8.08,32.01h-19.87c-7.65,0-8.27-32.32-8.27-32.32l-0.4,1.15
		C311,287.31,310.32,295.72,311.08,304.06"/>
	<path class="st18" d="M288.6,319.42l-0.03-0.13c-0.27-2.35-0.32-4.72-0.17-7.08c-0.52,3.38-2.11,6.5-4.55,8.93
		c1.38-0.61,2.79-1.13,4.24-1.57L288.6,319.42"/>
	<path class="st19" d="M380.68,362.79c-0.12,0.62-0.22,1.12-0.42,1.9c1.83,0.44,3.73,0.58,5.61,0.42c0.91-1.58,1.55-3.29,1.89-5.08
		C386,362.04,383.36,363.07,380.68,362.79"/>
	<path class="st19" d="M321.91,402.43c3.86,1.07,7.87,1.49,11.86,1.26c4.99-0.33,9.9-1.44,14.54-3.29c-1.2-0.09-2.39-0.33-3.53-0.73
		c-5.99,1.94-12.33,2.56-18.59,1.83c-1.11,0.37-2.26,0.64-3.42,0.8C322.49,402.32,322.26,402.36,321.91,402.43"/>
	<path class="st19" d="M283.92,366.64c-0.09-0.29-0.17-0.58-0.26-0.87c-2.73,0.26-5.45-0.61-7.52-2.4c0.34,1.38,0.91,2.7,1.68,3.89
		C279.88,367.39,281.94,367.18,283.92,366.64"/>
	<path class="st19" d="M288.15,371.43c1.79,1.18,3.74,2.09,5.8,2.71c8.69-1.7,17.28-3.91,25.71-6.6c1.31-0.24,2.38-1.17,2.77-2.43
		l-29.16,6.43c-0.07,0.01-0.14,0.01-0.22,0l0,0c-0.21,0-0.41-0.06-0.58-0.18l-1.14-0.78l-3.41-2.34l0,0l-1.37-0.95l0.08,0.23
		c0.08,0.22,0.15,0.45,0.24,0.67l0,0C286.98,368.47,287.39,369.67,288.15,371.43"/>
	<path class="st19" d="M377.53,365.9c0.19-0.68,0.37-1.37,0.51-2.06l-1.03,0.7l-2.72,1.88l-2.95,2.03c-0.15,0.1-0.33,0.17-0.51,0.18
		c-0.06,0.01-0.12,0.01-0.18,0l-29.34-3.3l-0.05,0.45c0.61,0.6,1.39,1.02,2.23,1.2c8.53,2.33,17.2,4.15,25.95,5.47
		c2.56-0.98,4.97-2.31,7.15-3.96l0.04-0.12c0.13-0.36,0.25-0.73,0.38-1.09c0.16-0.46,0.31-0.93,0.46-1.4"/>
	<path class="st20" d="M346.48,326.86c-0.23,0.29-0.48,0.62-0.76,0.95c-1.73,2.17-3.6,4.23-5.61,6.15
		c-2.66-0.08-5.41-0.12-8.23-0.13c-4.63,0-9.11,0.12-13.37,0.32c6.76-2.8,13.8-4.91,21-6.29
		C341.79,327.44,344.12,327.1,346.48,326.86"/>
	<path class="st20" d="M311.46,329.52c-2.45,1.69-4.76,3.59-6.89,5.67c-5.99,0.59-11.22,1.31-15.52,2
		C296.24,333.89,303.75,331.32,311.46,329.52"/>
	<path class="st20" d="M384.65,341.73l-2.44,16.83l-11.67,8.08l-30.44-3.42l-4.58-14.9c-0.12-0.36-0.42-0.62-0.8-0.69
		c-1.96-0.36-3.97-0.36-5.92,0c-0.37,0.07-0.68,0.33-0.8,0.69l-4.47,14.54l-30.27,6.65l-12.01-8.3l-2.37-18.89l1.57-0.86
		c0.74-0.16,1.58-0.33,2.5-0.51l2.23,17.82c0.03,0.28,0.19,0.52,0.42,0.68l8.25,5.71c0.17,0.11,0.37,0.18,0.57,0.18
		c0.07,0.01,0.15,0.01,0.22,0l24.89-5.47c0.09-0.02,0.17-0.05,0.25-0.09c0.24-0.12,0.41-0.34,0.49-0.59l4.48-14.57
		c2.28-0.6,4.63-0.94,6.99-1.02c2.36,0.08,4.7,0.42,6.98,1.02l4.48,14.57c0.12,0.37,0.45,0.64,0.84,0.7l24.89,2.79
		c0.24,0.03,0.48-0.03,0.68-0.17l8.29-5.7c0.22-0.16,0.37-0.4,0.41-0.68l2.21-15.23C382.2,341.22,383.58,341.5,384.65,341.73"/>
	<path class="st20" d="M387.72,331.18l-2.14,8.03c-8.95-1.88-18-3.25-27.1-4.09c4.45-1.83,8.68-4.14,12.62-6.88
		C378.89,329.32,384.61,330.49,387.72,331.18"/>
	<path class="st20" d="M276.11,331.18l0.6,2.22c1.67-1.31,3.19-2.4,4.48-3.26C279.09,330.53,277.38,330.9,276.11,331.18"/>
	<path class="st21" d="M360.14,326.7c-3.28-0.18-6.56-0.34-9.84-0.47c-0.19,0.28-0.58,0.83-1.13,1.58
		c-2.82,3.79-6.06,7.25-9.67,10.31c8.36-2.43,16.25-6.24,23.33-11.26L360.14,326.7"/>
	<path class="st21" d="M336.11,325.84L336.11,325.84c-1.66,0-3.33-0.04-4.99-0.05l0,0c-2.45,0-4.89,0.04-7.34,0.08l-4.51,2.11
		l-0.07,0.04c-4.45,2.26-8.55,5.14-12.18,8.54c0.49-0.25,1.03-0.51,1.54-0.78c7.32-4.62,15.38-7.99,23.83-9.97
		C333.63,325.81,334.87,325.81,336.11,325.84"/>
	<path class="st21" d="M308.37,326.38c-2.09,0.09-4.18,0.2-6.27,0.32c-2.42,0.13-4.84,0.29-7.25,0.47c-1.2,0.09-2.41,0.19-3.6,0.31
		c-0.34,0.04-0.68,0.07-1.03,0.11c-8.77,5.16-16.69,11.61-23.49,19.12l0.44-0.51c11.88-9.84,26.02-16.65,41.19-19.83"/>
	<path class="st21" d="M377.76,379.51l-0.28,0.14c-1.93,0.88-4.05,1.29-6.17,1.19c-1.54,0-3.09-0.13-4.76-0.28
		c-3.36-0.3-9.06-0.96-9.12-0.97l-0.44-0.05l-0.34-0.27c-0.05-0.04-5.04-3.96-9.07-7.11l-0.45-0.36c-0.43-0.36-0.43-0.36-0.68-0.36
		c-4.52,0.89-8.96,2.12-13.29,3.67l-0.51,0.16l-0.51-0.19c-3.85-1.28-7.88-1.95-11.94-1.99c-0.51,0-1.06,0-1.57,0.04
		c-0.65,0.03-4.29,1.74-8.95,9.01l-0.3,0.47l-0.51,0.17c-0.08,0-8.09,2.58-16.59,4.98l-0.55,0.15l-0.51-0.24
		c-0.06,0-3.37-1.52-6.54-2.98l0.7,0.32c3.12,2.66,9.1,7.78,9.77,8.49c0.09,0.1,0.22,0.23,0.37,0.37c-0.15-0.17-0.3-0.35-0.45-0.51
		l0,0c1.35,1.3,2.9,2.37,4.6,3.19c0.83,0.4,1.71,0.68,2.61,0.84c0.44,0.07,0.89,0.11,1.34,0.11c0.46,0,0.94,0,1.4-0.04
		c1.87-0.1,3.75-0.23,5.66-0.42c1.9-0.18,3.76-0.35,5.66-0.58s3.75-0.43,5.61-0.72c0.93-0.13,1.86-0.28,2.76-0.51
		c0.43-0.09,0.85-0.21,1.26-0.38c0.37-0.21,0.72-0.46,1.03-0.75c0.7-0.59,1.37-1.25,2.06-1.91c0.68-0.65,1.32-1.33,1.97-2.03
		c1.1-1.14,2.06-2.35,3.09-3.52l0.41-0.4l0,0l0,0c0.22,0.16,0.44,0.32,0.66,0.51c1.28,0.94,2.61,1.96,3.88,2.85
		c1.62,1.16,3.31,2.24,5.04,3.24c0.41,0.24,0.85,0.44,1.3,0.6c0.05,0.02,0.09,0.03,0.14,0.04c0.05,0.02,0.1,0.03,0.16,0.04
		c0.08,0,0.2,0,0.3,0c0.23,0,0.47,0,0.71,0c0.97-0.07,1.96-0.21,2.95-0.36c1.97-0.3,3.95-0.65,5.91-1.04
		c1.96-0.39,3.94-0.77,5.89-1.2c1.95-0.43,3.92-0.86,5.86-1.35c0.96-0.22,1.89-0.52,2.79-0.9c0.89-0.42,1.71-0.96,2.45-1.59
		c1.52-1.31,2.82-2.85,3.85-4.57l0,0c0.52-0.95,0.96-1.95,1.33-2.97"/>
	<path class="st21" d="M341,288h3.47v-6.96h-25.36V288h3.47v-3.55h7.17v21.48h-2.95v3.99h10v-3.99h-2.95v-21.46h7.17v3.55"/>
	<path class="st22" d="M367.24,327.17L367.24,327.17c-1.44-0.11-2.87-0.21-4.31-0.29h-0.08c-7.08,5.02-14.96,8.82-23.33,11.25
		l-0.2,0.16c5.99-1.06,11.83-2.8,17.41-5.2c3.43-1.48,6.72-3.29,9.8-5.4c0.25-0.17,0.48-0.35,0.72-0.51"/>
	<path class="st22" d="M332.4,325.81c-8.45,1.98-16.51,5.35-23.83,9.97c2.45-1.23,5.34-2.58,8.6-3.93h0.05l1.03-0.41l0.33-0.13
		l0.88-0.35l0.51-0.19l0.81-0.31l0.61-0.23l0.76-0.28l0.71-0.25l0.7-0.25l0.81-0.28l0.65-0.22l0.96-0.31l0.51-0.17l1.54-0.48
		c1.12-0.34,2.27-0.67,3.44-0.98c1.54-0.41,3.09-0.79,4.63-1.14c-1.23,0-2.47-0.03-3.7-0.04"/>
	<path class="st22" d="M308.37,326.38c-15.17,3.18-29.31,9.99-41.19,19.83c-0.14,0.17-0.29,0.34-0.44,0.51
		c11.55-7.96,24.29-14.08,37.76-18.15l1.61-0.46c2.75-0.76,5.58-1.43,8.49-1.99C312.54,326.21,310.46,326.29,308.37,326.38"/>
	<path class="st22" d="M380.75,378.09l-0.15,0.07l-0.32,0.15l-0.26,0.12l-0.21,0.1l-0.31,0.15l-0.13,0.07l-0.35,0.17l-0.08,0.04
		l-0.37,0.18h-0.04l-0.76,0.38c-0.36,1.02-0.81,2.02-1.33,2.97l0,0l0,0c-1.03,1.71-2.33,3.26-3.85,4.57
		c-0.74,0.64-1.56,1.17-2.45,1.59c-0.9,0.38-1.84,0.69-2.79,0.9c-1.94,0.51-3.9,0.93-5.86,1.35c-1.96,0.41-3.92,0.83-5.89,1.2
		s-3.94,0.74-5.91,1.04c-0.99,0.15-1.97,0.29-2.95,0.36c-0.24,0-0.48,0-0.71,0c-0.11,0-0.22,0-0.3,0c-0.05,0-0.1-0.02-0.15-0.04
		c-0.05-0.01-0.1-0.02-0.14-0.04c-0.45-0.16-0.89-0.36-1.3-0.59c-1.73-1-3.42-2.08-5.04-3.24c-1.28-0.88-2.6-1.9-3.88-2.85
		l-0.11,0.16l0,0l0.24,0.21l0,0l-0.17-0.13l1.07,1.26l0.12,0.14c0.55,0.63,2.84,3.26,5.57,5.93c1.96,1.98,4.65,3.08,7.45,3.05
		c1.03-0.01,2.05-0.13,3.05-0.37l3.09-0.74c3.18-0.75,6.68-1.58,9.05-2.18l0.45-0.12l0.9-0.24c0.42-0.12,0.89-0.23,1.38-0.34
		c3.66-0.37,6.92-2.44,8.77-5.58c0.57-1.12,1.21-2.36,1.87-3.63c0.92-1.76,1.87-3.55,2.72-5.16l0.4-0.75l0,0l0.21-0.39l-0.48,0.22"
		/>
	<path class="st22" d="M334.29,386.86l-0.19-0.17c-1.06,1.17-2.01,2.38-3.09,3.52c-0.65,0.69-1.31,1.36-1.97,2.03
		c-0.67,0.67-1.34,1.32-2.06,1.91c-0.31,0.29-0.66,0.54-1.03,0.75c-0.41,0.16-0.83,0.29-1.26,0.38c-0.91,0.2-1.83,0.35-2.76,0.51
		c-1.86,0.28-3.73,0.51-5.61,0.72c-1.87,0.21-3.76,0.41-5.66,0.58c-1.9,0.17-3.76,0.32-5.66,0.42c-0.47,0-0.94,0.04-1.4,0.04
		c-0.45,0-0.9-0.04-1.34-0.11c-0.91-0.16-1.78-0.44-2.61-0.84c-1.69-0.82-3.24-1.89-4.59-3.19l0,0c0.19,0.23,0.39,0.44,0.59,0.65
		l-0.14-0.13c-0.15-0.14-0.28-0.26-0.37-0.37c-0.66-0.71-6.64-5.83-9.77-8.49l-0.7-0.32c0.56,0.81,1.16,1.69,1.79,2.58
		c0.92,1.3,1.88,2.64,2.82,3.89c0.43,0.57,0.85,1.12,1.26,1.64c3.5,5.27,9.49,8.4,15.86,8.3c1.08,0,2.16-0.07,3.24-0.19l0.77-0.09
		l0.7-0.08c7.13-0.81,9.09-1.15,10.17-1.34l0.78-0.13l0.31-0.05c1.67-0.25,3.29-0.73,4.81-1.44c1.73-0.73,3.14-2.03,4-3.68
		c1.97-4.36,2.38-5.4,2.39-5.44l0.69-1.83"/>
	<path class="st14" d="M353.6,347.29c0.87-0.02,1.56-0.73,1.55-1.59c-0.02-0.86-0.74-1.54-1.61-1.53c-0.87,0.02-1.56,0.73-1.55,1.59
		c0,0,0,0,0,0C352.01,346.63,352.73,347.31,353.6,347.29z M363.31,354.31c-2.09-1.02-4.37,0.26-8.52,0.34
		c-3.09,0.11-5.68,0.14-5.85-4.65s1.8-8.76,4.9-8.87c3.1-0.11,5.91,3.7,6.29,8.48c0.13,1.01,0,2.04-0.38,3
		C362.64,352.27,363.29,354.2,363.31,354.31L363.31,354.31z"/>
	<path class="st14" d="M309.33,348.45c0.87-0.03,1.56-0.74,1.53-1.6c-0.03-0.86-0.75-1.54-1.62-1.51c-0.87,0.03-1.55,0.74-1.53,1.59
		c0.02,0.86,0.74,1.54,1.61,1.52C309.32,348.45,309.32,348.45,309.33,348.45z M314.1,350.96c0.05,4.79-2.52,4.5-5.62,4.53h-0.91
		c-0.34,0-0.68,0-1,0c-2.24-0.28-4.51-0.02-6.62,0.77c0.72-1.29,2.01-2.18,3.48-2.42c-0.35-0.89-0.52-1.84-0.51-2.8
		c-0.19-4.79,2.81-8.72,5.9-8.75c3.09-0.03,5.25,3.85,5.3,8.63L314.1,350.96z"/>
	<path class="st14" d="M372.65,318c-0.03,0.42-0.07,0.72-0.08,0.88c-1.22-0.33-2.45-0.62-3.69-0.91c-4.09-0.88-8.22-1.56-12.37-2.03
		l-0.44-0.05c0.03-0.06,0.05-0.12,0.07-0.18c0.12-0.45,0.23-0.89,0.33-1.35c0.81-3.8,1.11-7.69,0.89-11.57l14.77,4.15
		C372.72,310.6,372.89,314.31,372.65,318z M354.27,315.22c-0.05,0.17-0.05,0.34,0,0.51c-1.54-0.16-3.09-0.3-4.63-0.42
		c1.26-2.77,2.01-5.74,2.2-8.76c1.27-0.91,2.48-1.88,3.63-2.93c0.17,3.91-0.23,7.82-1.19,11.62L354.27,315.22z M308.76,315.73
		c0.05-0.17,0.05-0.34,0-0.51c-0.95-3.8-1.36-7.71-1.19-11.62c1.15,1.04,2.37,2.02,3.64,2.93c0.19,3.03,0.93,5.99,2.2,8.76
		c-1.55,0.12-3.09,0.26-4.63,0.42L308.76,315.73z M306.53,315.97c-2.06,0.25-4.14,0.51-6.21,0.85c-2.07,0.34-4.11,0.72-6.17,1.17
		c-1.24,0.28-2.46,0.58-3.69,0.91c0-0.1-0.03-0.24-0.04-0.43c-0.3-3.84-0.15-7.7,0.47-11.51l14.77-4.15
		c-0.2,3.71,0.06,7.42,0.78,11.07c0.13,0.62,0.28,1.25,0.45,1.87c0.02,0.06,0.04,0.12,0.07,0.18l-0.44,0.05L306.53,315.97z
		 M380.58,321.86l-0.37-0.18l-0.62-0.3l0,0c-0.13-0.07-0.26-0.14-0.39-0.22c-1.38-0.6-2.79-1.13-4.23-1.57l-0.51-0.15l0.03-0.13
		c0.26-2.35,0.32-4.71,0.16-7.07c-0.11-2.07-0.34-4.14-0.68-6.18c-0.06-0.37-0.33-0.66-0.69-0.77l-2.1-0.59
		c0.28-8.54-2.31-16.93-7.37-23.86c4.11,7.13,6.13,15.25,5.84,23.45l-13.06-3.67h-0.06c-0.06,0-0.11,0-0.17,0h-0.04
		c-0.07-0.01-0.14-0.01-0.22,0h-0.04c-0.06,0.01-0.12,0.03-0.17,0.06l-0.06,0.03l-0.13,0.09h-0.03l0,0l-0.04,0.03
		c0,0-0.37,0.35-0.91,0.86c0.04-1.2,0.05-3.05-0.09-5.31l-0.04-0.65c-0.4-7.19-2.39-14.21-5.85-20.56c0.04,0.1,0.44,1.25,0.95,3.2
		c2.24,8.32,2.99,16.97,2.24,25.54v0.15l-0.05,0.04c-0.51,0.4-1.03,0.79-1.54,1.13c-0.26,0.18-0.42,0.47-0.43,0.78
		c-0.14,3.1-0.91,6.14-2.26,8.95c-0.04,0.07-0.06,0.15-0.08,0.22c-5.34-0.36-10.71-0.51-16.06-0.51c-5.35,0-10.72,0.15-16.06,0.51
		c-0.02-0.07-0.04-0.13-0.07-0.19c-1.35-2.8-2.12-5.84-2.26-8.95c-0.01-0.31-0.16-0.6-0.42-0.78c-0.51-0.36-1.08-0.76-1.61-1.17
		c-0.76-8.34-0.08-16.74,2.01-24.85c0.62-2.45,1.13-3.92,1.17-4.06c-4.27,8.18-6.32,17.32-5.95,26.52c-0.56-0.51-0.9-0.85-0.91-0.86
		l-0.04-0.03l0,0h-0.04l-0.13-0.08l-0.06-0.04c-0.05-0.03-0.1-0.04-0.16-0.05h-0.04c-0.07-0.01-0.14-0.01-0.22,0h-0.06h-0.16h-0.08
		l-13.05,3.67c-0.3-8.22,1.72-16.36,5.85-23.5c-5.06,6.93-7.65,15.32-7.37,23.86l-2.1,0.59c-0.36,0.1-0.64,0.4-0.69,0.77
		c-0.34,2.05-0.57,4.11-0.68,6.18c-0.15,2.36-0.1,4.73,0.17,7.08l0.03,0.13l-0.51,0.15c-1.44,0.44-2.86,0.97-4.24,1.57
		c-0.12,0.08-0.25,0.15-0.39,0.21l0,0l-0.62,0.3l-0.32,0.16l-0.21,0.11c0.97-0.36,1.96-0.66,2.97-0.89
		c1.03-0.25,2.02-0.47,3.03-0.65c2.06-0.37,4.07-0.7,6.12-0.94s4.11-0.51,6.17-0.65c2.06-0.15,4.11-0.35,6.17-0.46
		c8.23-0.48,16.51-0.63,24.78-0.63c8.27,0,16.53,0.13,24.78,0.63c2.06,0.12,4.11,0.29,6.17,0.46s4.11,0.4,6.17,0.66
		c2.06,0.26,4.11,0.56,6.12,0.94c1.03,0.19,2.02,0.41,3.02,0.65c1.01,0.23,2.01,0.53,2.98,0.89l-0.16-0.09L380.58,321.86z"/>
	<path class="st14" d="M333.82,284.47v21.48h2.97v3.99h-10v-3.99h2.95v-21.48h-7.17v3.55h-3.47v-6.98h25.36V288H341v-3.55h-7.2
		L333.82,284.47z M347.07,290.56v-12.09H316.5v12.1h8.68v-3.55h1.95v16.35h-2.94v9.14h15.17v-9.14h-2.93v-16.33h1.96v3.55
		L347.07,290.56z"/>
</g>
<g>
	
		<linearGradient id="SVGID_1_" gradientUnits="userSpaceOnUse" x1="3.4142" y1="1747.9623" x2="4.4743" y2="1751.7783" gradientTransform="matrix(19.5313 0 0 19.5313 -18.5313 -33785.3281)">
		<stop  offset="0.28" style="stop-color:#00CDD7"/>
		<stop  offset="0.94" style="stop-color:#2086D7"/>
	</linearGradient>
	<path class="st23" d="M30.28,425.15l-10.75-63.88l20-8.25l12.63,7.5l11.75-6.25l24.25,9.38L74.53,432.9L30.28,425.15L30.28,425.15z
		"/>
	
		<linearGradient id="SVGID_2_" gradientUnits="userSpaceOnUse" x1="3.7431" y1="1748.4484" x2="5.5364" y2="1751.0778" gradientTransform="matrix(19.5313 0 0 19.5313 -18.5313 -33785.3281)">
		<stop  offset="0.14" style="stop-color:#FFF045"/>
		<stop  offset="0.37" style="stop-color:#00CDD7"/>
	</linearGradient>
	<path class="st24" d="M99.53,380.02l-10.38-25.5l-18.63-1.63l-29,27.75l7.75,35.88l14.63,10.13l35.63-21.13l-8.75-16.38
		L99.53,380.02z"/>
	
		<linearGradient id="SVGID_3_" gradientUnits="userSpaceOnUse" x1="5.5235" y1="1748.771" x2="5.759" y2="1749.6052" gradientTransform="matrix(19.5313 0 0 19.5313 -18.5313 -33785.3281)">
		<stop  offset="0.28" style="stop-color:#00CDD7"/>
		<stop  offset="0.94" style="stop-color:#2086D7"/>
	</linearGradient>
	<path class="st25" d="M83.53,376.15l7.25,13l8.75-9.13l-6.38-15.88L83.53,376.15z"/>
	<g>
		<path d="M34.53,367.9h50v50h-50V367.9z"/>
		<path class="st0" d="M39.28,408.52h18.75v3.13H39.28L39.28,408.52z M63.78,392.15l2.63-3.25c1.88,1.5,3.75,2.5,6.13,2.5
			c1.88,0,3-0.75,3-2c0-1.13-0.75-1.75-4.13-2.63c-4.12-1.13-6.75-2.25-6.75-6.38v-0.13c0-3.75,3-6.25,7.13-6.25
			c2.77-0.01,5.45,0.91,7.63,2.63l-2.38,3.5c-1.51-1.18-3.34-1.88-5.25-2c-1.63,0-2.63,0.75-2.63,1.88c0,1.38,0.88,1.88,4.38,2.75
			c4.13,1.13,6.5,2.63,6.5,6.25c0,4.13-3.13,6.5-7.5,6.5C69.32,395.41,66.24,394.22,63.78,392.15 M59.78,374.4l-3.13,12l-3.5-12
			h-3.5l-3.5,12l-3.13-12h-4.88l6,20.75h3.88l3.37-12l3.38,12h3.88l6-20.75H59.78L59.78,374.4z"/>
	</g>
</g>
<path d="M239.02,633c-22.09,0-39.98,18.4-39.98,41.12c0,19.32,12.89,35.36,30.29,39.88c-0.2-0.51-0.3-1.24-0.3-1.95v-6.99h-5
	c-2.7,0-5.2-1.23-6.3-3.5c-1.3-2.47-1.5-6.27-4.8-8.64c-1-0.82-0.2-1.64,0.9-1.54c2.1,0.62,3.8,2.06,5.4,4.21
	c1.6,2.16,2.3,2.67,5.3,2.67c1.4,0,3.6-0.1,5.6-0.41c1.1-2.88,3-5.45,5.3-6.68c-13.39-1.64-19.79-8.43-19.79-17.68
	c0-4.01,1.7-7.81,4.5-11.1c-0.9-3.19-2.1-9.77,0.4-12.34c6,0,9.6,4.01,10.49,5.04c3-1.03,6.3-1.64,9.69-1.64
	c3.5,0,6.7,0.62,9.69,1.64c0.9-1.03,4.5-5.04,10.49-5.04c2.4,2.47,1.3,9.15,0.3,12.34c2.8,3.19,4.4,7.09,4.4,11.1
	c0,9.25-6.3,16.04-19.59,17.48c3.7,1.95,6.3,7.5,6.3,11.61v9.36c0,0.31-0.1,0.62-0.1,0.92c15.59-5.55,26.79-20.76,26.79-38.75
	C279,651.4,261.11,633,239.02,633L239.02,633z"/>
<g>
	<path class="st26" d="M49.44,492.49c-2.74-2.59-7.18-2.59-9.91,0s-2.74,6.78,0,9.37c2.74,2.59,7.17,2.59,9.91,0h52.62
		c2.74,2.59,7.18,2.59,9.91,0s2.74-6.78,0-9.37c-2.74-2.59-7.17-2.59-9.91,0H49.44z"/>
	<path class="st26" d="M60.66,476.28c0-3.66-3.14-6.63-7.01-6.63s-7.01,2.97-7.01,6.63c0,3.65,3.13,6.62,7,6.63l37.22,35.17
		c0,3.66,3.14,6.63,7.01,6.63s7.01-2.97,7.01-6.63c0-3.65-3.13-6.62-7-6.63L60.66,476.28z"/>
	<path class="st26" d="M80.71,472.31c2.74-2.59,2.74-6.78,0-9.37c-2.74-2.59-7.18-2.59-9.91,0c-2.74,2.59-2.74,6.78,0,9.37v49.74
		c-2.74,2.59-2.74,6.78,0,9.37c2.74,2.59,7.18,2.59,9.91,0c2.74-2.59,2.74-6.78,0-9.37V472.31z"/>
	<path class="st26" d="M97.88,482.9c3.87-0.01,7-2.98,7-6.64s-3.15-6.62-7.02-6.61c-3.87,0.01-7,2.97-7,6.63l-37.22,35.17
		c-3.87,0-7.01,2.97-7.01,6.63c0,3.66,3.14,6.63,7.01,6.63s7.01-2.97,7.01-6.63L97.88,482.9z"/>
	<path class="st27" d="M49.44,492.49c-2.74-2.59-7.18-2.59-9.91,0s-2.74,6.78,0,9.37c2.74,2.59,7.17,2.59,9.91,0h52.62
		c2.74,2.59,7.18,2.59,9.91,0s2.74-6.78,0-9.37c-2.74-2.59-7.17-2.59-9.91,0H49.44z"/>
	<path class="st27" d="M60.66,476.28c0-3.66-3.14-6.63-7.01-6.63s-7.01,2.97-7.01,6.63c0,3.65,3.13,6.62,7,6.63l37.22,35.17
		c0,3.66,3.14,6.63,7.01,6.63s7.01-2.97,7.01-6.63c0-3.65-3.13-6.62-7-6.63L60.66,476.28z"/>
	<path class="st27" d="M80.71,472.31c2.74-2.59,2.74-6.78,0-9.37c-2.74-2.59-7.18-2.59-9.91,0c-2.74,2.59-2.74,6.78,0,9.37v49.74
		c-2.74,2.59-2.74,6.78,0,9.37c2.74,2.59,7.18,2.59,9.91,0c2.74-2.59,2.74-6.78,0-9.37V472.31z"/>
	<path class="st27" d="M97.88,482.9c3.87-0.01,7-2.98,7-6.64s-3.15-6.62-7.02-6.61c-3.87,0.01-7,2.97-7,6.63l-37.22,35.17
		c-3.87,0-7.01,2.97-7.01,6.63c0,3.66,3.14,6.63,7.01,6.63s7.01-2.97,7.01-6.63L97.88,482.9z"/>
	<path d="M31.51,497.18H120v29.56c0.13,6.66-5.48,12.15-12.52,12.27c-0.15,0-0.3,0-0.45,0H44.49c-7.04,0.12-12.85-5.18-12.98-11.84
		c0-0.14,0-0.29,0-0.43V497.18z"/>
	<path class="st0" d="M44.79,518.05c-4.47-4.24-4.45-11.11,0.04-15.33s11.75-4.2,16.21,0.04c2.13,2.03,3.33,4.77,3.34,7.62h-6.73
		c-0.02-2.47-2.15-4.47-4.77-4.45s-4.73,2.04-4.71,4.51c0.01,1.16,0.5,2.28,1.36,3.11l0,0c0.91,0.82,2.1,1.29,3.36,1.32l0,0
		c3.01,0.14,5.88,1.26,8.11,3.18l0,0c4.48,4.23,4.47,11.1,0,15.33c-4.48,4.23-11.74,4.23-16.21,0c-2.15-2.03-3.36-4.79-3.36-7.66
		h6.73c0.01,2.47,2.14,4.47,4.76,4.47c2.62-0.01,4.73-2.02,4.73-4.49c0-1.18-0.5-2.3-1.37-3.14l0,0c-0.95-0.75-2.13-1.21-3.36-1.31
		l0,0C49.91,521.02,47.06,519.9,44.79,518.05z"/>
	<path class="st0" d="M87.29,499.56l-8.11,37.01h-6.72l-8.09-37.01h6.7l4.74,21.67l4.74-21.67H87.29z"/>
	<path class="st0" d="M98.76,514.88h11.47v10.84l0,0c0,5.99-5.13,10.84-11.47,10.84c-6.33,0-11.47-4.85-11.47-10.84l0,0v-15.33l0,0
		c0-5.99,5.13-10.84,11.47-10.84c6.33,0,11.47,4.85,11.47,10.84h-6.72c0-2.48-2.13-4.49-4.75-4.49c-2.62,0-4.75,2.01-4.75,4.49
		v15.32l0,0c0,2.48,2.13,4.49,4.75,4.49c2.62,0,4.75-2.01,4.75-4.49l0,0v-4.48h-4.74L98.76,514.88L98.76,514.88z"/>
</g>
<g>
	<path class="st28" d="M384.44,141.97c0-5.62,1.3-11.03,3.77-16.24c3.33-7.08,8.33-12.87,15.01-17.28
		c7.85-5.18,16.42-7.71,25.72-7.37c2.31,0.09,4.57,0.37,6.81,0.79c0.55,0.1,0.6,0.3,0.42,0.78c-1.72,4.74-3.43,9.48-5.11,14.23
		c-0.2,0.55-0.42,0.63-0.98,0.55c-13.06-1.99-26.02,7-28.48,19.73c-0.43,2.24-0.57,4.48-0.31,6.72c0.03,0.2-0.01,0.41-0.02,0.62
		c-2.59-0.38-5.2-0.75-7.78-1.14C390.47,142.89,387.45,142.44,384.44,141.97z"/>
	<path class="st29" d="M407.89,157.41c1.3,0.98,2.53,2.08,3.95,2.89c5.97,3.41,12.42,4.26,19.31,2.21
		c6.21-1.84,11.29-5.35,15.01-10.61c0.13-0.17,0.27-0.35,0.39-0.51c0.13,0.04,0.25,0.1,0.38,0.12c5.21,0.81,10.43,1.61,15.64,2.42
		c-0.96,2.63-2.34,5.06-3.94,7.37c-4.66,6.7-10.88,11.62-18.46,14.84c-9.44,4-19.01,4.66-28.59,1.92c-4.2-1.2-8.08-3.01-11.53-5.57
		c1-1.94,2-3.86,3-5.79C404.66,163.6,406.28,160.51,407.89,157.41z"/>
	<path class="st30" d="M462.58,153.93c-5.21-0.81-10.43-1.61-15.64-2.42c-0.12-0.02-0.26-0.07-0.38-0.12
		c0.82-1.62,1.69-3.23,2.14-4.99c0.77-2.93,0.8-5.81,0.11-8.68c-0.09-0.35-0.2-0.43-0.54-0.25c-0.17,0.1-0.34,0.17-0.52,0.26
		c-6.01,3.08-12.04,6.15-18.03,9.25c-0.66,0.34-0.89,0.25-1.18-0.35c-2.02-4.01-4.06-8-6.14-11.98c-0.26-0.51-0.18-0.72,0.36-1
		c11.02-5.63,22.03-11.27,33.05-16.93c0.47-0.24,0.72-0.23,1.08,0.18c2.84,3.33,4.73,7.16,6.14,11.27
		c1.12,3.28,1.85,6.65,2.09,10.14c0.35,5.16-0.42,10.21-2.3,15.17C462.76,153.65,462.66,153.78,462.58,153.93z"/>
	<path class="st31" d="M407.89,157.41c-1.61,3.1-3.22,6.19-4.83,9.29c-1,1.92-2,3.86-3,5.79c-2.31-1.5-4.25-3.33-6.09-5.31
		c-3.53-3.84-6.05-8.29-7.71-13.19c-1.3-3.85-1.96-7.86-1.83-12c3.02,0.45,6.03,0.93,9.05,1.38c2.6,0.39,5.19,0.77,7.78,1.14
		c0.43,1.64,0.71,3.32,1.34,4.91c1.15,2.89,2.8,5.43,4.99,7.65C407.72,157.15,407.8,157.28,407.89,157.41z"/>
</g>
<g>
	
		<radialGradient id="SVGID_4_" cx="-235.6653" cy="1252.2539" r="6.000000e-03" gradientTransform="matrix(5655.6157 0 0 6406.1563 1333250.5 -8021735)" gradientUnits="userSpaceOnUse">
		<stop  offset="0" style="stop-color:#93B4E7"/>
		<stop  offset="0.593" style="stop-color:#B9D1F8"/>
		<stop  offset="1" style="stop-color:#9CB6E0"/>
	</radialGradient>
	<path class="st32" d="M418.2,365.11l-31.72,17.97v35.95L418.2,437l31.73-17.97v-35.95L418.2,365.11z"/>
	<path class="st33" d="M418.2,383.34l-15.73,8.92v17.83L418.2,419l15.73-8.91v-17.83L418.2,383.34z"/>
	<path class="st34" d="M418.2,365l-31.8,18.1l31.8,16.98l31.8-16.87L418.2,365z M418.2,402.41l-31.8,16.54l31.8,17.98l31.69-18.1
		L418.2,402.41z"/>
</g>
<path d="M237.32,703.24c0,0.4,0.17,0.76,0.44,0.98c-1.12,0.19-2.39,1.16-2.68,1.99c-0.4-0.25-0.9,0.02-0.9,0.45
	c-0.01,0.41,0.55,0.78,1,0.37c0.11,0.16,0.27,0.29,0.46,0.4c0,0.18-0.01,0.7,0.06,0.8c0.09,0.13,1.03,0.12,1.07,0
	c0.02-0.06,0.04-0.34,0.04-0.49c0.31,0.01,0.62-0.02,0.91-0.1c-0.05,0.13-0.09,0.35-0.06,0.6c-0.99,0.74-1.53,2.33-0.54,3.7
	c-0.62,0.25-1.22,0.6-1.2,1.04c0.89-0.02,4.11,0,4.11,0c0.2,0,0.38-0.03,0.56-0.08c8.06-1.18-0.08-8.23,4.41-10.37
	c-5.21,1.06,1.95,8.42-3.43,9.51c1.34-1.32,0.88-5.35-1.32-7.16c0.57-0.11,1-0.67,1-1.35c0.02-0.98-1.04-1.89-1.98-1.06
	C238.68,701.59,237.36,701.98,237.32,703.24z"/>
<g>
	<path class="st35" d="M296.88,629.46l28.38,8.05l-8.16,28.77l-28.38-8.05L296.88,629.46z"/>
	<path class="st36" d="M296.88,629.46l28.38,8.05l-8.16,28.77l-28.38-8.05L296.88,629.46z M287.04,659.21L318,668l8.93-31.46
		l-30.96-8.79L287.04,659.21z M313.18,646.58c-1.02-0.29-1.52,0.15-1.65,0.59c-0.14,0.48,0,0.89,1.16,2.01
		c1.74,1.6,2.09,2.76,1.68,4.2c-0.61,2.15-2.51,2.86-4.64,2.26c-0.92-0.22-1.78-0.68-2.48-1.33c-0.08-0.07-0.07-0.14-0.04-0.24
		l0.56-1.98c0.04-0.13,0.11-0.16,0.19-0.06c0.63,0.74,1.45,1.27,2.37,1.53c1.02,0.29,1.57-0.03,1.74-0.64
		c0.14-0.48-0.04-1-1.14-2.07c-1.57-1.43-2.07-2.58-1.63-4.12c0.49-1.73,2.2-2.8,4.46-2.16c0.8,0.19,1.54,0.54,2.2,1.03
		c0.07,0.08,0.09,0.2,0.05,0.31l-0.52,1.84c-0.03,0.11-0.11,0.16-0.23,0.08C314.68,647.22,313.96,646.8,313.18,646.58L313.18,646.58
		z M301.63,645.03c0.29,0.11,0.52,0.18,1.04,0.32c1.51,0.43,3.08,0.28,3.69-1.86c0.48-1.71-0.29-2.86-2.01-3.34
		c-0.52-0.15-1.01-0.26-1.25-0.31L301.63,645.03z M301.36,637.24c0.03-0.09,0.23-0.11,0.33-0.08c0.84,0.19,2.07,0.52,3.35,0.88
		c3.57,1.01,4.39,3.45,3.65,6.06c-0.97,3.41-3.76,4.21-6.67,3.38c-0.49-0.14-0.65-0.21-1-0.31l-1.47,5.16
		c-0.03,0.11-0.08,0.15-0.2,0.12l-1.97-0.56c-0.1-0.03-0.14-0.08-0.11-0.21L301.36,637.24L301.36,637.24z"/>
</g>
<g>
	<path class="st37" d="M220.85,341.91l23.12-8.74l7.83,20.72l-23.12,8.74L220.85,341.91z"/>
	<path class="st38" d="M220.85,341.91l23.12-8.74l7.83,20.72l-23.12,8.74L220.85,341.91z M228,364l25.22-9.54l-8.57-22.66
		l-25.22,9.54L228,364z M239.01,343.17c-0.03-0.08-0.01-0.13,0.08-0.16l1.65-0.62c0.08-0.03,0.14-0.02,0.17,0.07l2.89,7.64
		c0.03,0.08,0.02,0.12-0.08,0.16l-1.63,0.62c-0.11,0.04-0.16,0-0.18-0.07l-2.88-7.63L239.01,343.17L239.01,343.17z M238.06,341.01
		c-0.21-0.55,0.11-1.17,0.7-1.39c0.59-0.22,1.24,0.04,1.44,0.58c0.23,0.49-0.02,1.1-0.56,1.34c-0.05,0.02-0.11,0.04-0.16,0.06
		c-0.53,0.24-1.15,0.03-1.37-0.46C238.09,341.1,238.08,341.06,238.06,341.01L238.06,341.01z M235.37,348.19
		c-0.7-0.97-2.28-3.04-2.97-4.08l-0.02,0.01c0.21,1.22,0.38,3.34,0.5,5.01L235.37,348.19z M233.04,350.86l0.27,3.22
		c0.01,0.09-0.02,0.12-0.12,0.16l-1.54,0.58c-0.11,0.04-0.14,0.02-0.16-0.11l-0.66-10.76c-0.03-0.29-0.09-0.57-0.2-0.84
		c-0.03-0.07-0.01-0.11,0.05-0.13l2.21-0.83c0.07-0.03,0.11-0.02,0.16,0.05l7.29,9.19c0.05,0.07,0.05,0.13-0.04,0.16l-1.74,0.66
		c-0.08,0.03-0.14,0.03-0.19-0.02l-1.96-2.59L233.04,350.86L233.04,350.86z"/>
</g>
<g>
	<path class="st39" d="M378.65,701l-29.73-26.63l8.33-38.93l38.02-12.3L425,649.77l-8.33,38.93L378.65,701z M364.27,669.42
		L382,685.27l22.67-7.35l4.98-23.2l-17.73-15.88l-22.67,7.39L364.27,669.42z"/>
	<path class="st40" d="M402.95,689.64h-31.97l-16-27.57l16-27.57h31.97l16,27.57L402.95,689.64z M376.6,679.93h20.72l10.37-17.86
		l-10.37-17.86H376.6l-10.34,17.86L376.6,679.93L376.6,679.93z"/>
</g>
<g>
	<g id="g4204" transform="translate(0,2)">
		<path id="path4206" class="st41" d="M281.55,703.57l-14.45,33.54h9.45l2.81-7.11h14.53l2.81,7.11h9.45l-14.49-33.54
			C291.66,703.57,281.55,703.57,281.55,703.57z M286.68,711.47l2.45,6.38l2.45,6.38l-4.89,0.01l-4.89,0.01l2.44-6.39L286.68,711.47
			L286.68,711.47z"/>
		<path id="path4208" class="st41" d="M351.65,703.57l-14.45,33.54h9.45l2.81-7.11h14.53l2.81,7.11h9.45l-14.49-33.54
			C361.76,703.57,351.65,703.57,351.65,703.57z M356.78,711.47l2.45,6.38l2.45,6.38l-4.89,0.01l-4.89,0.01l2.44-6.39L356.78,711.47
			L356.78,711.47z"/>
		<path id="path4210" class="st41" d="M378.72,703.45h10.74l6.86,10.69l7.28-10.69h10.58l-12.75,16.26L415,737.22h-10.74
			l-7.79-11.42l-7.64,11.42h-11.46l13.83-17.35L378.72,703.45z"/>
		<path id="path4212" class="st42" d="M333.3,689.26l-12.85,13.1l4.42,4.15l4.19-4.36l0.47,0v25.01c0,3.17-2.47,5.73-5.53,5.73
			h-4.39c-3.06,0-5.53-2.56-5.53-5.73v-2.67h-8.55v3.32c0,5.74,4.46,10.36,10,10.36h11.35c5.54,0,10-4.62,10-10.36v-25.64l0.33,0
			l4.89,4.34l3.84-4.15L333.3,689.26L333.3,689.26z"/>
		<path id="path4214" class="st42" d="M309.73,721.73l12.85-13.1l-4.42-4.15l-4.19,4.36l-0.47,0v-25.01c0-3.17,2.47-5.73,5.53-5.73
			h4.39c3.06,0,5.53,2.56,5.53,5.73v2.67h8.55v-3.32c0-5.74-4.46-10.36-10-10.36h-11.35c-5.54,0-10,4.62-10,10.36v25.64l-0.33,0
			l-4.89-4.34l-3.84,4.15L309.73,721.73L309.73,721.73z"/>
	</g>
	
		<linearGradient id="path3338_1_" gradientUnits="userSpaceOnUse" x1="341.0478" y1="408.5225" x2="341.0478" y2="342.8562" gradientTransform="matrix(1 0 0 -1 0 1082)">
		<stop  offset="0" style="stop-color:#70B0DF"/>
		<stop  offset="0.5" style="stop-color:#1B81C5"/>
		<stop  offset="1" style="stop-color:#4A98CE"/>
	</linearGradient>
	<path id="path3338" class="st43" d="M316.15,674c-5.54,0-10,4.62-10,10.36v25.64l-0.33,0l-4.89-4.34l-3.84,4.15l12.64,13.1
		l12.85-13.1l-4.42-4.15l-4.19,4.36l-0.47,0v-25.01c0-3.17,2.47-5.73,5.53-5.73h4.39c3.06,0,5.53,2.56,5.53,5.73v2.67h8.55v-3.32
		c0-5.74-4.46-10.36-10-10.36H316.15z M333.3,690.44l-12.85,13.1l4.42,4.15l4.19-4.36l0.47,0v25.01c0,3.17-2.47,5.73-5.53,5.73
		h-4.39c-3.06,0-5.53-2.56-5.53-5.73v-2.67h-8.55v3.32c0,5.74,4.46,10.36,10,10.36h11.35c5.54,0,10-4.62,10-10.36v-25.64l0.33,0
		l4.89,4.34l3.84-4.15L333.3,690.44z M378.72,704.63l12.49,16.42l-13.83,17.35h11.46l7.64-11.42l7.79,11.42H415l-13.57-17.51
		l12.75-16.26h-10.58l-7.28,10.7l-6.86-10.7H378.72z M281.55,704.75l-14.45,33.54h9.45l2.81-7.11h14.53l2.81,7.11h9.45l-14.49-33.54
		H281.55z M351.65,704.75l-14.45,33.54h9.45l2.81-7.11h14.53l2.81,7.11h9.45l-14.49-33.54H351.65z M286.68,712.66l2.45,6.38
		l2.45,6.38l-4.89,0.01l-4.89,0.01l2.44-6.39L286.68,712.66z M356.78,712.66l2.45,6.38l2.45,6.38l-4.89,0.01l-4.89,0.01l2.44-6.39
		L356.78,712.66z"/>
</g>
<g id="_x34__stroke">
	<g id="Google_Chrome">
		<rect x="329.9" y="48" class="st11" width="52.1" height="53.95"/>
		<g id="Google_Chrome_1_">
			<path class="st44" d="M336.19,57.4c12.11-14.59,34.56-11.71,42.96,5.33c-5.91,0-15.16,0-20.17,0c-3.63,0-5.98-0.08-8.52,1.3
				c-2.99,1.63-5.24,4.65-6.03,8.19L336.19,57.4z"/>
			<path class="st45" d="M347.28,74.97c0,4.95,3.88,8.97,8.66,8.97c4.77,0,8.66-4.02,8.66-8.97c0-4.95-3.88-8.97-8.66-8.97
				C351.17,66,347.28,70.03,347.28,74.97z"/>
			<path class="st46" d="M359.3,86.72c-4.86,1.5-10.55-0.16-13.66-5.73c-2.38-4.25-8.66-15.58-11.52-20.74
				c-10,15.87-1.38,37.5,16.77,41.2L359.3,86.72z"/>
			<path class="st47" d="M363.98,66c4.05,3.9,4.93,10.21,2.19,15.1c-2.07,3.69-8.66,15.21-11.85,20.79
				c18.71,1.19,32.34-17.79,26.18-35.89C380.5,66,363.98,66,363.98,66z"/>
		</g>
	</g>
</g>
</svg>
