<svg id="Layer_1" data-name="Layer 1" xmlns="http://www.w3.org/2000/svg" width="64" height="64" viewBox="0 0 64 64"><defs><style>.cls-1{fill:pink;}</style></defs><title>heart</title><path class="cls-1" d="M16.36,23.58c-1.4.6-2.56,2.57-3.06,4.13s-.34,4.28,0,4.72,1.28-.1,1.22-.57a10.59,10.59,0,0,1,.12-3.71,4.68,4.68,0,0,1,2.5-3.57C17.89,24,16.62,23.47,16.36,23.58Zm40,8.59c.21-2.59.67-8.34-4.33-12.63S41.32,16.13,36.4,17.71s-5.83,3.42-5.83,3.42-.58-.59-1.87-1.8A9.34,9.34,0,0,0,21.78,17c-3.33.17-7.92,2.13-10,5S8.74,30.25,9,33.38s2,8,5.25,12.79S22,54,26.28,56.79s8.2,3.53,8.42,3.38c7.58-5.29,10.54-8.5,15.5-14.67S56.11,34.75,56.32,32.17ZM49.49,42.38c-.42.25-2-3.92-2.46-4.25s-.83.33-.88.7a28.46,28.46,0,0,0,2.55,4.5c.5.71-1.13,2-1.46,2.21S45.15,41.29,44.86,41s-1.16.12-1.21.37S46.49,45.5,46.7,46s-1.59,1.92-1.8,1.92-2.29-4.38-2.58-4.42-.29-.08-.62.33,2.41,4.17,2.7,4.59-1.54,2.08-1.79,2.33-2.41-4.33-2.41-4.33-1.09.45-1.05.75,2.63,3.7,2.8,4.08-1.13,1.33-1.38,1.46-2.42-4.5-2.58-4.59-.71.3-.88.63,2.75,4.54,2.75,4.67a8.79,8.79,0,0,1-1.5,1.29c-.41.29-2.21-4-2.54-4.09S35,51,35,51.25s2.5,3.71,2.5,4-1.5,1.25-1.67,1.25-2.25-4-2.42-4a1.27,1.27,0,0,0-.75.66c-.12.34,2.59,3.8,2.67,4s-1,.63-1.12.71-2.67-4.16-2.8-4.16a1.79,1.79,0,0,0-.66.79c0,.16,2.87,3.66,2.87,3.66a57.39,57.39,0,0,1-7.29-3.91c-3.71-2.38-5.62-4.29-10-9.46s-4.71-9.79-4.83-14,1.42-7.29,4-9.09a10.11,10.11,0,0,1,8.62-2.08c4.13.63,5.67,4.42,5.88,4.75s1,.08,1.54-.08.92-1.88,1.5-2.29A21.1,21.1,0,0,1,39.45,19,12.52,12.52,0,0,1,51,21a9.93,9.93,0,0,1,3.37,7.29c0,.38-2.08-2.54-2.29-2.54s-.29.5-.33.79,2.62,3.42,2.75,3.67a18.9,18.9,0,0,1-.21,3.71c-.13.16-3-5-3.09-5s-.7.58-.7.79,3.33,5,3.45,5.12A5,5,0,0,1,53,36.88c-.21.08-2.42-4.55-2.5-4.71s-.79.33-1,.79,3,4.71,3,4.83a13.71,13.71,0,0,1-1.21,2.09c-.21.2-2.37-4.3-2.62-4.34s-.71.67-.71.79,2.79,4.46,2.79,4.59A6,6,0,0,1,49.49,42.38Zm.78-18c.12.06.62-.44.72-.75s-.47-1.1-2.32-2.57a5.78,5.78,0,0,0-4-1.37c-.34.15-.68.72-.31.94s1.22.5,2.78,1.12A10.5,10.5,0,0,1,50.27,24.4ZM32.58,14.11c1.25.13,2.28-.5,4.22-2S40,8.65,40,7.58s-.69-3.37-2.75-3.72A3.54,3.54,0,0,0,34,5a3.21,3.21,0,0,0-.5-.44,6,6,0,0,0-2.38-.72,3.92,3.92,0,0,0-3.37,2.35c-.53,1.44-.47,2.5,1,5A6,6,0,0,0,32.58,14.11ZM29.33,5.8c.81-1,1.56-.84,2.59-.59S33.05,6.83,33.67,7s.29.16,1.16-.72,1.34-1.06,2.06-1.06,1.44.87,1.66,1.53a2.36,2.36,0,0,1-.31,1.81c-.19.16-.53-1.25-.75-1.28s-.63.38-.66.72.94,1.16.94,1.16a8.56,8.56,0,0,1-1.06,1.53c-.41.34-1.07-2.13-1.22-2.32s-.44.1-.69.32,1,2.18,1.12,2.53-.84.5-1.18.59-1.1-2.12-1.19-2.28-.63.34-.78.56,1,2,1.09,2.25-.53.32-.65.32a30.42,30.42,0,0,1-1.32-2.82c-.12-.25-.62-.06-.81.35S32.3,12.8,32.3,12.8c-.66,0-1.59-.75-2.88-2.72S28.52,6.77,29.33,5.8Zm-15,9.1a9.33,9.33,0,0,0,1.59-5.07,2.66,2.66,0,0,0-3.06-3.12A3.13,3.13,0,0,0,10.3,8.43a2.11,2.11,0,0,0-1.75-.69,3.36,3.36,0,0,0-3.22,2.53c-.75,2,.53,3.28,2,4.63A11.35,11.35,0,0,0,11.92,17C12.52,17,13.21,16.4,14.3,14.9ZM8.3,14c-1.47-1.19-2-2.25-1.69-3.41A2.54,2.54,0,0,1,8.52,8.86c.5-.06,1.65,1.38,2.12,1.38s.72-1.59,1.44-2a1.62,1.62,0,0,1,2,.22c.47.5.69,1,.44,2.78a5.29,5.29,0,0,1-1.31,3,20.61,20.61,0,0,1-1.66-2.44c-.16-.19-.5.09-.63.47s1.66,2.5,1.69,2.72-.28.44-.5.53S10.49,13.24,10.27,13a.61.61,0,0,0-1,.25c-.22.5,1.81,2.5,1.81,2.5C10.39,16,9.77,15.18,8.3,14Zm5.59-1.81c.19-.22-1.22-1.47-1.43-1.35-.54.32.65,1.88.78,2S13.71,12.4,13.89,12.18ZM58.71,54.52a1.82,1.82,0,0,0-2.25-1.31s-.72-1.85-1.63-2.19a3.27,3.27,0,0,0-3.16.78,6.32,6.32,0,0,0-1.68,4,7.32,7.32,0,0,0,1,3.6,20.1,20.1,0,0,0,2.59.12,9.71,9.71,0,0,0,4.12-1.22C58.8,57.55,59.14,56.27,58.71,54.52Zm-1.5,2.59c-.13.1-.29-1.5-.29-1.65s-.81-.22-1-.06a5.59,5.59,0,0,0,.25,2.31c.19.5-.53.09-.71.09s-.13-1.62-.22-2.12-1.07-.22-1.22,0a10.84,10.84,0,0,0,.47,2.4c0,.19-.41.19-.72.19s-.25-1.66-.35-2.13a.72.72,0,0,0-1.21-.25c-.44.44.12,2.44.12,2.44a1.16,1.16,0,0,1-.69,0c-.25-.12-.4-.75-.47-1.25a7.74,7.74,0,0,1,.54-3.59c.62-1.38,2.15-1.94,3-1.1s.47,2.07.57,2.22.62-.06,1.28-.06.9.19,1.09.72A3.1,3.1,0,0,1,57.21,57.11Z"/></svg>